{"glyphs":{"0":{"ha":779,"x_min":0,"x_max":0,"o":"m 708 444 b 426 836 708 644 608 836 b 71 372 189 836 71 588 b 353 -19 71 172 172 -19 b 708 444 590 -19 708 229 z m 357 774 b 544 293 467 774 544 553 b 424 43 544 207 515 43 b 238 524 314 43 238 264 b 357 774 238 624 254 774 z "},"1":{"ha":531,"x_min":0,"x_max":0,"o":"m 347 843 l 58 536 l 60 533 l 189 583 l 189 92 l 71 0 l 472 0 l 347 92 z "},"2":{"ha":733,"x_min":0,"x_max":0,"o":"m 74 0 l 635 0 l 663 333 l 657 333 l 581 165 l 313 161 l 231 154 l 228 161 b 606 611 342 300 606 415 b 261 826 606 758 438 826 l 81 826 l 81 586 l 88 586 b 281 789 133 711 186 789 b 426 636 372 789 426 725 b 64 46 426 385 175 138 z "},"3":{"ha":697,"x_min":0,"x_max":0,"o":"m 74 -22 b 621 258 215 -22 621 58 b 301 443 621 392 443 431 b 608 660 513 503 608 567 b 285 826 608 785 460 826 l 81 826 l 81 590 l 88 590 b 268 788 126 690 169 788 b 429 640 365 788 429 729 b 189 435 429 521 274 467 l 144 418 l 147 394 b 189 404 161 397 175 401 b 411 211 311 379 411 333 b 63 13 411 64 196 13 z "},"4":{"ha":789,"x_min":0,"x_max":0,"o":"m 717 206 l 717 268 l 547 268 l 547 628 l 386 381 l 386 269 l 201 269 l 576 826 l 383 826 l 65 207 l 388 207 l 388 92 l 271 0 l 672 0 l 547 92 l 547 206 z "},"5":{"ha":668,"x_min":0,"x_max":0,"o":"m 147 492 l 174 661 l 543 661 l 578 828 l 593 899 l 514 828 l 139 828 l 138 815 l 82 407 l 128 407 l 135 444 l 140 444 b 283 496 194 475 247 496 b 431 240 418 496 431 346 b 301 40 431 79 383 40 b 83 240 164 40 83 240 l 74 240 b 68 1 72 147 68 1 l 228 1 b 593 296 450 1 593 99 b 331 551 593 454 457 551 b 199 521 289 551 244 542 z "},"6":{"ha":706,"x_min":0,"x_max":0,"o":"m 614 876 b 69 268 332 761 69 524 b 333 -17 69 88 185 -17 b 629 256 519 -17 629 131 b 394 501 629 415 521 501 b 251 443 346 501 289 469 b 622 850 299 624 451 769 z m 243 408 b 331 444 272 436 292 444 b 474 226 393 444 474 369 b 360 25 474 163 447 25 b 229 267 274 25 229 114 b 243 408 229 318 233 365 z "},"7":{"ha":671,"x_min":0,"x_max":0,"o":"m 63 826 l 63 558 l 67 558 l 133 660 l 471 660 l 129 -33 l 174 -56 l 629 826 z "},"8":{"ha":688,"x_min":0,"x_max":0,"o":"m 347 847 b 79 617 178 847 79 735 b 219 408 79 539 122 458 b 69 181 153 365 69 299 b 311 -21 69 56 168 -21 b 618 244 467 -21 618 76 b 439 496 618 375 535 449 b 542 676 497 539 542 590 b 347 847 542 797 439 847 z m 408 511 b 197 675 303 560 197 592 b 335 813 197 769 267 813 b 492 660 417 813 492 768 b 408 511 492 596 460 551 z m 256 390 b 490 172 367 342 490 311 b 313 14 490 67 414 14 b 119 186 183 14 119 100 b 256 390 119 282 194 354 z "},"9":{"ha":699,"x_min":0,"x_max":0,"o":"m 75 -46 b 619 563 357 69 619 307 b 356 847 619 743 504 847 b 60 575 169 847 60 700 b 294 329 60 415 168 329 b 438 388 343 329 400 361 b 67 -19 390 207 238 61 z m 446 422 b 358 386 417 394 397 386 b 215 604 296 386 215 461 b 329 806 215 668 242 806 b 460 564 415 806 460 717 b 446 422 460 513 456 465 z "},"\r":{"ha":0,"x_min":0,"x_max":0,"o":""}," ":{"ha":278,"x_min":0,"x_max":0,"o":""},"!":{"ha":301,"x_min":0,"x_max":0,"o":"m 115 306 l 163 306 l 226 913 l 139 976 l 50 913 z m 258 92 l 146 221 l 32 92 l 146 -36 z "},"\"":{"ha":342,"x_min":0,"x_max":0,"o":"m 53 976 l 47 669 l 100 665 l 151 967 z m 207 963 l 201 656 l 254 651 l 306 954 z "},"#":{"ha":674,"x_min":0,"x_max":0,"o":"m 521 844 l 458 596 l 271 596 l 332 844 l 294 844 l 233 596 l 72 596 l 72 526 l 217 526 l 168 315 l 35 315 l 35 244 l 150 244 l 88 0 l 124 0 l 188 244 l 375 244 l 313 0 l 350 0 l 413 244 l 601 244 l 601 315 l 429 315 l 478 526 l 639 526 l 639 596 l 496 596 l 557 844 z m 442 526 l 393 315 l 204 315 l 253 526 z "},"$":{"ha":624,"x_min":0,"x_max":0,"o":"m 28 324 l 43 33 b 256 -10 96 10 182 -6 l 256 -81 l 308 -81 l 311 -10 b 590 260 475 -1 590 76 b 329 514 590 411 451 463 l 339 776 b 515 586 417 750 481 683 l 525 585 l 525 846 l 467 828 l 340 828 l 343 901 l 257 901 l 257 826 b 32 594 103 813 32 711 b 256 338 32 442 146 386 l 256 47 b 42 324 157 83 76 193 z m 257 546 b 150 679 194 578 150 617 b 257 789 150 746 194 786 z m 313 36 l 322 307 b 458 144 397 271 458 228 b 322 36 458 69 386 36 z "},"%":{"ha":994,"x_min":0,"x_max":0,"o":"m 435 731 b 261 965 435 850 375 965 b 42 686 111 965 42 815 b 215 451 42 567 101 451 b 435 731 365 451 435 601 z m 689 965 l 213 0 l 293 0 l 769 965 z m 218 910 b 332 644 288 910 332 788 b 260 507 332 597 318 507 b 146 772 190 507 146 629 b 218 910 146 828 153 910 z m 947 279 b 774 514 947 399 888 514 b 554 235 624 514 554 364 b 728 0 554 115 614 0 b 947 279 878 0 947 150 z m 731 458 b 844 193 800 458 844 336 b 772 56 844 146 831 56 b 658 321 703 56 658 178 b 731 458 658 376 665 458 z "},"&":{"ha":958,"x_min":0,"x_max":0,"o":"m 894 521 l 890 529 l 621 440 l 624 433 l 744 413 b 421 18 776 224 604 18 b 276 224 365 18 276 29 b 472 501 276 417 393 478 b 579 499 508 499 544 499 l 561 554 b 421 522 514 533 483 522 b 288 696 349 522 288 589 b 422 925 288 865 361 925 l 611 797 l 618 804 l 569 965 b 94 681 256 965 94 807 b 386 499 94 550 250 518 b 64 188 281 451 64 390 b 350 -26 64 35 226 -26 b 789 413 669 -26 797 238 z "},"'":{"ha":186,"x_min":0,"x_max":0,"o":"m 51 969 l 46 663 l 99 658 l 150 961 z "},"(":{"ha":369,"x_min":0,"x_max":0,"o":"m 363 1008 b 51 383 231 875 51 731 b 363 -242 51 36 231 -122 l 382 -221 b 129 383 222 -51 129 131 b 382 988 129 636 222 817 z "},")":{"ha":403,"x_min":0,"x_max":0,"o":"m 21 988 b 274 383 181 817 274 636 b 21 -221 274 131 181 -51 l 40 -242 b 351 383 172 -122 351 36 b 40 1008 351 731 172 875 z "},"*":{"ha":465,"x_min":0,"x_max":0,"o":"m 186 897 l 222 735 l 247 735 l 282 900 l 233 956 z m 89 840 l 206 726 l 193 704 l 39 754 l 18 826 z m 376 840 l 261 726 l 274 704 l 426 754 l 449 826 z m 89 544 l 206 660 l 193 682 l 39 632 l 18 560 z m 376 544 l 261 660 l 274 682 l 426 632 l 449 560 z m 283 492 l 247 654 l 222 654 l 188 489 l 236 433 z "},"+":{"ha":736,"x_min":0,"x_max":0,"o":"m 657 331 l 657 431 l 407 431 l 407 692 l 299 692 l 299 431 l 63 431 l 63 331 l 299 331 l 299 56 l 407 56 l 407 331 z "},",":{"ha":315,"x_min":0,"x_max":0,"o":"m 69 -171 b 264 86 99 -151 264 -50 b 157 221 264 133 200 193 l 47 103 l 99 60 b 138 -12 115 40 138 24 b 51 -157 138 -65 96 -118 z "},"-":{"ha":408,"x_min":0,"x_max":0,"o":"m 57 444 l 57 339 l 367 339 l 367 444 z "},".":{"ha":251,"x_min":0,"x_max":0,"o":"m 239 92 l 126 221 l 13 92 l 126 -36 z "},"/":{"ha":618,"x_min":0,"x_max":0,"o":"m 464 965 l 51 0 l 154 0 l 567 965 z "},":":{"ha":251,"x_min":0,"x_max":0,"o":"m 239 465 l 126 594 l 13 465 l 126 338 z m 239 92 l 126 221 l 13 92 l 126 -36 z "},";":{"ha":338,"x_min":0,"x_max":0,"o":"m 289 488 l 176 617 l 63 488 l 176 360 z m 88 -171 b 282 86 117 -151 282 -50 b 175 221 282 133 218 193 l 65 103 l 117 60 b 156 -12 135 40 156 24 b 69 -157 156 -65 114 -118 z "},"<":{"ha":717,"x_min":0,"x_max":0,"o":"m 646 546 l 646 646 l 54 406 l 51 407 l 51 294 l 54 294 l 646 56 l 646 156 l 181 350 z "},"=":{"ha":676,"x_min":0,"x_max":0,"o":"m 63 463 l 592 463 l 592 563 l 63 563 z m 63 179 l 592 179 l 592 279 l 63 279 z "},">":{"ha":717,"x_min":0,"x_max":0,"o":"m 64 156 l 64 56 l 656 294 l 657 294 l 657 407 l 656 406 l 64 646 l 64 546 l 529 350 z "},"?":{"ha":700,"x_min":0,"x_max":0,"o":"m 104 965 l 136 728 l 147 729 b 322 914 176 832 221 914 b 425 719 375 914 425 872 b 226 475 425 624 349 519 l 250 306 l 282 306 l 297 456 b 626 750 385 503 626 569 b 218 965 626 940 408 965 z m 381 92 l 268 221 l 156 92 l 268 -36 z "},"@":{"ha":951,"x_min":0,"x_max":0,"o":"m 436 101 l 854 142 b 907 347 888 201 907 263 b 464 790 907 592 708 790 b 21 347 219 790 21 592 b 464 -96 21 103 219 -96 b 792 50 593 -96 711 -39 l 764 78 b 464 -57 690 -4 583 -57 b 61 346 242 -57 61 124 b 464 749 61 568 242 749 b 867 346 686 749 867 568 b 831 181 867 282 853 231 l 657 165 l 592 201 l 729 610 l 611 603 l 558 607 b 158 239 360 621 158 425 b 261 115 158 143 207 115 b 501 292 342 115 436 210 z m 521 354 b 357 240 482 297 406 240 b 281 326 304 240 281 260 b 599 569 281 471 433 589 z "},"A":{"ha":1010,"x_min":0,"x_max":0,"o":"m 613 297 l 693 96 l 572 0 l 979 0 l 881 93 l 522 965 l 461 965 l 125 110 l 31 0 l 324 0 l 197 108 l 269 297 z m 589 360 l 293 360 l 438 740 z "},"B":{"ha":875,"x_min":0,"x_max":0,"o":"m 74 951 l 153 807 l 153 147 l 74 0 l 365 0 b 808 254 553 0 808 54 b 540 517 808 396 706 478 b 750 742 639 556 750 617 b 376 951 750 907 576 951 z m 325 907 l 371 907 b 579 714 461 907 579 881 b 325 525 579 606 494 525 z m 325 54 l 325 490 b 614 258 494 490 614 442 b 367 54 614 125 501 54 z "},"C":{"ha":904,"x_min":0,"x_max":0,"o":"m 769 669 l 769 951 l 563 951 b 68 443 244 951 68 690 b 454 -17 68 171 217 -17 b 836 293 657 -17 778 149 l 817 307 b 535 146 774 236 694 146 b 260 564 350 146 260 329 b 481 894 260 747 326 894 b 761 669 618 894 708 786 z "},"D":{"ha":1021,"x_min":0,"x_max":0,"o":"m 78 951 l 175 804 l 175 147 l 78 0 l 407 0 b 950 517 732 0 950 196 b 429 951 950 714 829 951 z m 347 53 l 347 907 l 440 907 b 768 478 649 907 768 756 b 431 53 768 308 711 53 z "},"E":{"ha":822,"x_min":0,"x_max":0,"o":"m 72 0 l 735 0 l 750 301 l 743 304 l 553 50 l 324 50 l 324 454 l 685 454 l 685 517 l 324 517 l 324 901 l 540 901 l 703 660 l 710 660 l 710 951 l 72 951 l 151 807 l 151 147 z "},"F":{"ha":781,"x_min":0,"x_max":0,"o":"m 151 807 l 151 147 l 71 8 l 71 0 l 464 0 l 322 147 l 322 449 l 674 449 l 674 513 l 322 513 l 322 901 l 540 901 l 704 660 l 710 660 l 710 951 l 71 951 z "},"G":{"ha":954,"x_min":0,"x_max":0,"o":"m 831 364 l 900 415 l 900 429 l 522 429 l 522 414 l 661 339 l 661 110 b 551 83 625 92 578 83 b 267 563 315 83 267 349 b 472 893 267 781 339 893 b 753 668 622 893 693 779 l 771 668 l 771 950 l 564 950 b 69 442 246 950 69 689 b 456 -18 69 169 218 -18 b 685 65 543 -18 621 19 l 810 -8 l 831 -8 z "},"H":{"ha":1083,"x_min":0,"x_max":0,"o":"m 635 0 l 1003 0 l 906 147 l 906 804 l 1004 951 l 636 951 l 733 806 l 733 525 l 335 525 l 335 804 l 435 951 l 67 951 l 163 806 l 163 147 l 65 0 l 433 0 l 335 147 l 335 463 l 733 463 l 733 147 z "},"I":{"ha":497,"x_min":0,"x_max":0,"o":"m 163 147 l 65 0 l 432 0 l 335 147 l 335 804 l 432 951 l 65 951 l 163 804 z "},"J":{"ha":469,"x_min":0,"x_max":0,"o":"m 321 804 l 418 951 l 51 951 l 149 804 l 149 -101 b 119 -239 149 -147 136 -204 l 129 -244 b 321 6 203 -197 321 -101 z "},"K":{"ha":1068,"x_min":0,"x_max":0,"o":"m 404 450 l 653 88 l 593 0 l 1028 0 l 872 106 l 532 585 l 763 828 l 956 953 l 649 953 l 690 849 l 542 683 l 349 479 l 349 806 l 447 953 l 79 953 l 178 806 l 178 147 l 79 0 l 447 0 l 349 147 l 349 392 z "},"L":{"ha":847,"x_min":0,"x_max":0,"o":"m 74 0 l 774 0 l 788 301 l 782 301 l 600 63 l 325 63 l 325 806 l 425 951 l 74 951 l 153 807 l 153 147 z "},"M":{"ha":1272,"x_min":0,"x_max":0,"o":"m 68 0 l 339 0 l 238 133 l 238 706 l 572 -17 l 582 -17 l 924 815 l 924 144 l 813 0 l 1196 0 l 1096 146 l 1096 838 l 1194 951 l 918 951 l 633 257 l 318 951 l 57 951 l 169 807 l 169 133 z "},"N":{"ha":1050,"x_min":0,"x_max":0,"o":"m 732 0 l 938 0 l 881 81 l 881 822 l 978 951 l 703 951 l 817 832 l 817 158 l 275 951 l 57 951 l 185 775 l 185 129 l 88 0 l 360 0 l 247 119 l 247 679 z "},"O":{"ha":1025,"x_min":0,"x_max":0,"o":"m 954 518 b 563 969 954 744 806 969 b 71 435 240 969 71 714 b 463 -17 71 208 219 -17 b 954 518 785 -17 954 239 z m 469 910 b 769 350 657 910 769 636 b 556 42 769 240 715 42 b 258 603 368 42 258 317 b 469 910 258 713 290 910 z "},"P":{"ha":817,"x_min":0,"x_max":0,"o":"m 171 804 l 171 147 l 72 0 l 461 0 l 343 147 l 343 403 b 464 413 374 403 422 406 b 758 697 603 431 758 526 b 390 951 758 928 485 951 l 72 951 z m 343 910 b 569 681 485 910 569 836 b 343 450 569 525 486 450 z "},"Q":{"ha":1025,"x_min":0,"x_max":0,"o":"m 800 -165 l 749 75 b 954 518 885 172 954 339 b 563 963 954 744 806 963 b 71 435 240 963 71 714 b 463 -10 71 208 219 -10 b 515 -7 481 -10 499 -8 b 794 -174 607 -78 699 -137 z m 469 903 b 769 350 657 903 769 636 b 556 49 769 240 715 49 b 258 603 368 49 258 317 b 469 903 258 713 290 903 z "},"R":{"ha":967,"x_min":0,"x_max":0,"o":"m 932 0 l 792 136 l 586 471 b 792 706 693 513 792 592 b 394 951 792 936 489 951 l 76 951 l 175 804 l 175 147 l 76 0 l 444 0 l 347 147 l 347 428 l 410 433 b 664 0 486 324 574 161 z m 347 910 b 597 689 489 910 597 856 b 347 474 597 547 474 476 z "},"S":{"ha":751,"x_min":0,"x_max":0,"o":"m 64 372 l 81 39 b 343 -11 144 8 257 -11 b 669 283 517 -11 669 76 b 197 781 669 578 197 549 b 324 907 197 861 250 907 b 590 674 443 907 547 821 l 607 672 l 607 972 l 543 951 l 354 951 b 68 694 160 951 68 826 b 524 181 68 372 524 444 b 386 42 524 100 464 42 b 81 372 246 42 124 192 z "},"T":{"ha":917,"x_min":0,"x_max":0,"o":"m 849 951 l 47 951 l 47 647 l 53 646 l 231 901 l 358 901 l 358 147 l 261 0 l 629 0 l 531 147 l 531 903 l 664 903 l 840 646 l 849 647 z "},"U":{"ha":1085,"x_min":0,"x_max":0,"o":"m 892 822 l 893 826 l 1013 951 l 715 951 l 828 826 l 828 418 b 600 46 828 107 706 46 b 349 328 472 46 349 71 l 349 804 l 447 951 l 79 951 l 175 806 l 175 307 b 551 -21 175 -21 471 -21 b 838 133 688 -21 789 42 b 892 385 874 206 892 258 z "},"V":{"ha":946,"x_min":0,"x_max":0,"o":"m 640 951 l 753 832 l 529 192 l 513 257 l 282 867 l 388 951 l 26 951 l 96 869 l 444 -28 l 508 -28 l 824 828 l 917 951 z "},"W":{"ha":1396,"x_min":0,"x_max":0,"o":"m 1085 951 l 1199 831 l 1000 196 l 985 257 l 779 867 l 888 951 l 526 951 l 592 872 l 688 606 l 536 206 l 524 257 l 306 867 l 413 951 l 51 951 l 119 869 l 447 -17 l 528 -17 l 717 524 l 908 -17 l 989 -17 l 1272 832 l 1361 951 z "},"X":{"ha":1003,"x_min":0,"x_max":0,"o":"m 267 131 l 457 408 l 647 138 l 529 0 l 979 0 l 838 147 l 576 515 l 788 808 l 943 951 l 600 951 l 696 811 l 532 574 l 354 817 l 461 951 l 43 951 l 179 804 l 410 474 l 168 144 l 29 0 l 372 0 z "},"Y":{"ha":957,"x_min":0,"x_max":0,"o":"m 294 0 l 661 0 l 564 147 l 564 442 l 785 821 l 921 951 l 585 951 l 697 807 l 524 496 l 503 542 l 347 804 l 349 804 l 461 951 l 36 951 l 157 804 l 392 390 l 392 147 z "},"Z":{"ha":928,"x_min":0,"x_max":0,"o":"m 71 -1 l 831 -1 l 846 300 l 840 300 l 658 61 l 283 61 l 844 931 l 835 950 l 268 950 l 128 964 l 119 646 l 125 646 l 300 886 l 615 886 l 61 15 z "},"[":{"ha":297,"x_min":0,"x_max":0,"o":"m 265 924 l 265 988 l 14 988 l 14 -222 l 265 -222 l 265 -144 l 89 -144 l 89 924 z "},"\\":{"ha":600,"x_min":0,"x_max":0,"o":"m 464 0 l 567 0 l 154 965 l 51 965 z "},"]":{"ha":297,"x_min":0,"x_max":0,"o":"m 190 -158 l 14 -158 l 14 -222 l 265 -222 l 265 988 l 14 988 l 14 924 l 190 924 z "},"^":{"ha":647,"x_min":0,"x_max":0,"o":"m 540 392 l 640 392 l 379 964 l 381 965 l 268 965 l 268 964 l 7 392 l 107 392 l 324 847 z "},"_":{"ha":772,"x_min":0,"x_max":0,"o":"m 18 0 l 18 -83 l 754 -83 l 754 0 z "},"`":{"ha":267,"x_min":0,"x_max":0,"o":"m 213 946 l 46 946 l 217 767 l 238 767 z "},"a":{"ha":704,"x_min":0,"x_max":0,"o":"m 222 0 b 449 518 304 132 400 319 l 432 357 l 432 0 l 697 0 l 594 119 l 594 606 l 647 681 l 489 681 b 40 226 199 675 40 485 b 119 -15 40 114 78 14 z m 244 107 b 213 301 228 107 213 165 b 435 640 213 442 249 639 b 244 107 433 493 271 107 z "},"b":{"ha":693,"x_min":0,"x_max":0,"o":"m 424 681 b 263 208 363 558 304 374 l 263 986 l 8 907 l 103 800 l 103 0 l 194 0 b 653 376 496 0 653 179 b 561 706 653 513 604 639 z m 263 40 b 414 554 264 176 386 554 b 481 301 439 554 481 449 b 263 40 481 182 447 42 z "},"c":{"ha":529,"x_min":0,"x_max":0,"o":"m 486 500 l 490 506 l 393 700 l 379 700 b 40 254 210 657 40 465 b 244 -17 40 69 129 -17 b 518 303 317 -17 446 90 l 496 317 b 311 82 432 169 357 82 b 215 374 249 82 215 194 b 265 593 215 465 239 593 z "},"d":{"ha":718,"x_min":0,"x_max":0,"o":"m 706 0 l 603 97 l 603 986 l 349 907 l 443 800 l 443 678 b 40 226 183 650 40 463 b 128 -15 40 114 86 14 l 231 0 b 457 518 313 132 408 319 l 440 357 l 440 -12 z m 253 107 b 213 301 236 107 213 165 b 443 640 213 442 257 639 b 253 107 442 493 279 107 z "},"e":{"ha":579,"x_min":0,"x_max":0,"o":"m 517 315 b 321 82 517 315 421 82 b 221 276 271 82 233 161 l 526 539 b 353 699 526 567 485 699 b 40 261 182 699 40 461 b 246 -17 40 76 122 -17 b 539 301 381 -17 503 182 z m 218 310 b 215 372 217 329 215 350 b 283 656 215 594 258 640 b 378 461 301 668 371 601 z "},"f":{"ha":514,"x_min":0,"x_max":0,"o":"m 532 792 l 536 796 l 483 978 l 426 965 b 138 681 246 925 138 736 l 33 681 l 131 593 l 131 281 l 144 -318 l 156 -318 b 290 356 218 -81 290 -40 l 290 606 l 514 647 l 514 681 l 290 681 b 328 897 261 786 290 897 z "},"g":{"ha":683,"x_min":0,"x_max":0,"o":"m 221 0 b 447 518 303 132 399 319 l 431 357 l 431 35 b 276 -240 429 -187 365 -240 b 8 -125 219 -240 89 -192 l 0 -135 l 154 -324 l 163 -324 b 589 104 343 -324 589 -126 l 589 121 l 592 157 l 590 157 l 590 168 b 593 604 592 314 592 460 l 646 681 l 488 681 b 39 226 194 675 39 479 b 118 -15 39 114 76 14 z m 243 107 b 211 301 226 107 211 165 b 433 640 211 442 247 639 b 243 107 432 493 269 107 z "},"h":{"ha":740,"x_min":0,"x_max":0,"o":"m 260 986 l 6 907 l 100 800 l 100 0 l 281 0 l 260 85 b 428 569 260 201 358 432 l 439 568 b 467 200 454 514 467 417 l 467 0 l 729 0 l 626 119 l 626 281 b 588 715 626 564 624 604 l 451 681 b 260 233 422 640 314 439 z "},"i":{"ha":381,"x_min":0,"x_max":0,"o":"m 299 888 l 183 1015 l 67 888 l 183 758 z m 271 119 l 271 694 l 17 601 l 111 494 l 111 0 l 374 0 z "},"j":{"ha":393,"x_min":0,"x_max":0,"o":"m 328 888 l 215 1015 l 101 888 l 215 758 z m 299 694 l 50 601 l 140 494 l 140 -87 b 110 -308 140 -185 132 -279 l 118 -312 b 299 8 200 -240 299 -124 z "},"k":{"ha":739,"x_min":0,"x_max":0,"o":"m 271 986 l 17 907 l 111 800 l 111 0 l 301 0 l 271 85 b 331 267 271 136 296 200 b 522 32 394 194 442 107 b 731 -17 575 -1 654 -12 l 733 -14 l 675 50 b 411 404 608 125 479 313 b 492 526 440 449 469 490 l 669 465 l 676 468 l 572 700 l 563 699 b 271 210 533 658 353 408 z "},"l":{"ha":381,"x_min":0,"x_max":0,"o":"m 111 800 l 111 758 l 17 718 l 111 611 l 111 0 l 374 0 l 271 119 l 271 986 l 17 907 z "},"m":{"ha":1119,"x_min":0,"x_max":0,"o":"m 268 694 l 14 601 l 108 494 l 108 0 l 289 0 l 268 85 b 436 569 268 201 367 432 l 447 568 b 475 200 463 514 475 417 l 475 0 l 654 0 l 635 79 l 635 111 b 808 582 647 238 743 457 b 840 200 825 532 840 439 l 840 4 l 1103 4 l 1000 119 l 1000 281 b 961 715 1000 564 997 604 l 825 681 b 635 239 796 640 689 443 l 635 281 b 596 715 635 564 632 604 l 460 681 b 268 233 431 640 322 439 z "},"n":{"ha":754,"x_min":0,"x_max":0,"o":"m 268 694 l 14 601 l 108 494 l 108 0 l 289 0 l 268 85 b 436 569 268 201 367 432 l 447 568 b 475 200 463 514 475 417 l 475 0 l 738 0 l 635 119 l 635 281 b 596 715 635 564 632 604 l 460 681 b 268 233 431 640 322 439 z "},"o":{"ha":696,"x_min":0,"x_max":0,"o":"m 40 276 b 303 -19 40 89 154 -19 b 656 396 492 -19 656 179 b 376 697 656 579 550 697 b 40 276 181 697 40 500 z m 322 653 b 472 333 364 653 472 578 b 349 26 472 104 390 26 b 215 369 307 26 215 139 b 322 653 215 615 281 653 z "},"p":{"ha":706,"x_min":0,"x_max":0,"o":"m 432 681 b 271 242 371 558 313 407 l 271 701 l 17 622 l 111 515 l 111 -207 l 78 -299 l 374 -299 l 271 -221 l 271 -54 b 661 376 528 -21 661 194 b 569 706 661 513 613 639 z m 271 69 b 422 554 271 203 394 554 b 489 301 447 554 489 449 b 271 -18 489 182 456 -17 z "},"q":{"ha":704,"x_min":0,"x_max":0,"o":"m 231 0 b 457 518 313 132 408 319 l 440 357 l 440 0 l 443 -215 l 394 -299 l 697 -299 l 603 -192 l 603 681 l 497 681 b 40 226 204 675 40 479 b 128 -15 40 114 86 14 z m 253 107 b 213 301 236 107 213 165 b 443 640 213 442 257 639 b 253 107 442 493 279 107 z "},"r":{"ha":568,"x_min":0,"x_max":0,"o":"m 581 465 l 585 471 l 468 700 l 450 700 b 260 253 368 583 300 408 l 260 694 l 6 601 l 100 494 l 100 0 l 271 0 l 260 85 b 397 515 260 225 378 507 z "},"s":{"ha":476,"x_min":0,"x_max":0,"o":"m 403 475 l 396 681 l 297 681 b 57 465 144 681 57 564 b 331 108 57 314 331 244 b 267 53 331 71 308 53 b 40 249 186 53 115 139 l 36 236 l 69 0 l 183 0 b 440 208 363 0 440 117 b 163 561 440 356 163 464 b 211 614 163 596 172 614 b 394 474 272 614 342 556 z "},"t":{"ha":506,"x_min":0,"x_max":0,"o":"m 478 665 l 478 681 l 257 681 l 257 917 l 100 681 l 1 681 l 96 599 l 96 204 b 253 -17 99 -7 203 -17 b 474 272 339 -17 435 118 l 458 278 b 322 86 429 192 367 86 b 257 247 285 86 257 94 l 257 594 z "},"u":{"ha":725,"x_min":0,"x_max":0,"o":"m 453 0 l 707 0 l 613 107 l 613 681 l 432 681 l 453 596 b 279 101 453 476 349 236 b 269 481 274 157 269 246 l 269 708 l 7 681 l 110 561 l 110 226 b 136 -11 110 125 128 33 l 261 0 b 453 447 290 40 399 242 z "},"v":{"ha":604,"x_min":0,"x_max":0,"o":"m 406 681 l 406 672 l 489 604 b 356 115 536 565 507 256 l 250 725 l 0 593 l 129 497 l 221 -21 b 604 681 447 50 588 456 z "},"w":{"ha":982,"x_min":0,"x_max":0,"o":"m 783 681 l 783 672 l 867 604 b 731 108 915 564 882 244 l 732 114 l 633 681 l 467 681 b 508 488 490 571 500 531 b 353 108 507 365 453 201 l 354 114 l 250 725 l 0 593 l 129 497 l 221 -21 b 531 365 358 22 465 190 l 599 -21 b 982 681 825 50 965 456 z "},"x":{"ha":751,"x_min":0,"x_max":0,"o":"m 488 0 l 721 0 l 604 90 l 439 375 b 621 681 490 442 578 561 l 422 681 l 513 604 b 419 408 513 526 456 460 l 261 681 l 28 681 l 129 593 l 288 329 b 67 0 228 254 107 113 l 278 0 l 194 76 b 308 296 194 150 264 236 z "},"y":{"ha":717,"x_min":0,"x_max":0,"o":"m 471 35 b 317 -240 469 -187 406 -240 b 49 -125 260 -240 129 -192 l 40 -135 l 194 -324 l 203 -324 b 629 104 383 -324 629 -126 l 629 681 l 472 681 l 472 583 b 308 118 472 522 453 254 l 264 681 l 7 681 l 121 571 l 172 -21 b 471 349 310 22 410 188 z "},"z":{"ha":590,"x_min":0,"x_max":0,"o":"m 572 681 l 138 681 l 72 692 l 46 382 l 54 383 l 139 526 l 421 526 l 32 -17 l 67 -17 l 133 69 b 306 128 164 111 239 128 b 440 -49 397 128 440 49 b 183 -285 440 -217 299 -285 b 22 -224 104 -285 63 -253 l 6 -249 b 181 -312 69 -301 129 -312 b 576 118 406 -312 576 -81 b 417 282 576 211 529 282 b 250 225 357 282 297 258 z "},"{":{"ha":411,"x_min":0,"x_max":0,"o":"m 76 394 b 247 624 101 413 247 457 b 221 806 247 694 221 713 b 332 979 221 917 258 979 l 332 1008 b 118 789 197 1008 118 951 b 146 589 118 731 146 656 b 79 439 146 507 104 460 b 24 413 61 425 51 421 l 24 371 b 79 344 51 363 61 358 b 146 194 104 324 146 276 b 118 -6 146 128 118 53 b 331 -225 118 -168 197 -225 l 331 -196 b 221 -22 258 -196 221 -133 b 247 160 221 71 247 89 b 76 389 247 326 101 371 z "},"|":{"ha":449,"x_min":0,"x_max":0,"o":"m 138 972 l 138 -208 l 261 -208 l 261 972 z "},"}":{"ha":411,"x_min":0,"x_max":0,"o":"m 290 389 b 119 160 265 371 119 326 b 146 -22 119 89 146 71 b 35 -196 146 -133 108 -196 l 35 -225 b 249 -6 169 -225 249 -168 b 221 194 249 53 221 128 b 288 344 221 276 263 324 b 343 371 306 358 315 363 l 343 413 b 288 439 315 421 306 425 b 221 589 263 460 221 507 b 249 789 221 656 249 731 b 36 1008 249 951 169 1008 l 36 979 b 146 806 108 979 146 917 b 119 624 146 713 119 694 b 290 394 119 457 265 413 z "},"~":{"ha":554,"x_min":0,"x_max":0,"o":"m 458 806 l 438 814 l 376 767 l 183 785 l 96 633 l 115 621 l 171 681 l 376 663 z "}," ":{"ha":278,"x_min":0,"x_max":0,"o":""},"¡":{"ha":301,"x_min":0,"x_max":0,"o":"m 38 571 l 150 442 l 264 571 l 150 699 z m 181 357 l 133 357 l 69 -250 l 157 -314 l 246 -250 z "},"¢":{"ha":622,"x_min":0,"x_max":0,"o":"m 568 575 l 568 764 l 422 764 l 440 901 l 354 901 l 340 760 b 35 396 121 731 35 538 b 276 68 35 239 114 85 l 263 -81 l 313 -81 l 332 68 b 601 351 488 85 574 244 l 586 357 b 401 232 569 308 497 232 b 354 238 385 232 369 233 l 414 703 b 561 575 482 679 531 622 z m 294 263 b 194 522 236 301 194 382 b 336 715 194 617 228 710 z "},"¤":{"ha":647,"x_min":0,"x_max":0,"o":"m 111 681 l 69 636 l 158 551 b 118 429 133 518 118 475 b 160 304 118 382 133 339 l 69 218 l 111 174 l 203 261 b 324 224 238 238 279 224 b 442 260 368 224 408 236 l 532 174 l 574 218 l 486 301 b 529 429 513 336 529 381 b 488 554 529 476 514 519 l 574 636 l 532 681 l 443 596 b 324 635 410 619 368 635 b 201 594 278 635 236 619 z m 176 429 b 324 576 176 511 242 576 b 472 429 406 576 472 511 b 324 282 472 347 406 282 b 176 429 242 282 176 347 z "},"¨":{"ha":571,"x_min":0,"x_max":0,"o":"m 242 864 l 157 969 l 71 864 l 157 757 z m 499 864 l 414 969 l 328 864 l 414 757 z "},"«":{"ha":711,"x_min":0,"x_max":0,"o":"m 401 39 l 253 342 l 135 342 l 401 635 l 388 658 l 61 342 l 388 25 z m 693 39 l 544 342 l 428 342 l 693 635 l 681 658 l 353 342 l 681 25 z "},"­":{"ha":619,"x_min":0,"x_max":0,"o":"m 36 429 l 36 338 l 583 338 l 583 429 z "},"¯":{"ha":458,"x_min":0,"x_max":0,"o":"m 83 889 l 83 835 l 389 835 l 389 889 z "},"²":{"ha":501,"x_min":0,"x_max":0,"o":"m 53 600 l 447 600 l 467 813 l 464 813 l 410 706 l 219 703 b 175 699 219 703 175 699 l 172 703 b 428 989 253 792 428 864 b 185 1125 428 1082 308 1125 l 58 1125 l 58 972 l 63 972 b 199 1097 94 1051 132 1097 b 300 1006 263 1097 300 1061 b 46 629 300 844 124 688 z "},"³":{"ha":472,"x_min":0,"x_max":0,"o":"m 56 578 b 442 757 154 578 442 629 b 225 874 442 842 317 867 b 433 1011 365 913 433 953 b 206 1118 433 1092 328 1118 l 61 1118 l 61 968 l 65 968 b 193 1090 93 1031 124 1090 b 307 999 261 1090 307 1056 b 138 868 307 924 197 889 l 106 858 l 108 843 b 138 849 119 844 128 847 b 293 726 224 833 293 804 b 49 604 293 633 143 604 z "},"´":{"ha":283,"x_min":0,"x_max":0,"o":"m 71 946 l 46 767 l 67 767 l 238 946 z "},"¶":{"ha":810,"x_min":0,"x_max":0,"o":"m 367 376 l 367 -12 b 343 -139 367 -43 367 -90 l 347 -142 b 458 33 381 -135 458 -68 l 458 890 l 547 890 l 547 0 l 639 0 l 639 842 l 735 949 l 614 949 l 614 951 l 422 951 l 422 950 l 368 950 l 367 951 b 31 681 169 951 31 878 b 296 421 31 524 157 421 b 372 436 319 421 350 426 z "},"·":{"ha":251,"x_min":0,"x_max":0,"o":"m 239 365 l 126 494 l 13 365 l 126 238 z "},"¸":{"ha":346,"x_min":0,"x_max":0,"o":"m 188 11 l 151 11 l 81 -100 b 228 -169 183 -125 228 -132 b 163 -206 228 -192 200 -206 b 65 -172 126 -206 93 -193 l 53 -190 b 157 -231 85 -217 117 -231 b 290 -133 226 -231 290 -183 b 158 -47 290 -87 225 -62 z "},"¹":{"ha":457,"x_min":0,"x_max":0,"o":"m 296 1131 l 93 936 l 94 935 l 185 967 l 185 650 l 103 592 l 385 592 l 296 650 z "},"»":{"ha":711,"x_min":0,"x_max":0,"o":"m 26 644 l 175 342 l 292 342 l 26 49 l 39 25 l 367 342 l 39 658 z m 318 644 l 467 342 l 585 342 l 318 49 l 332 25 l 658 342 l 332 658 z "},"¼":{"ha":1035,"x_min":0,"x_max":0,"o":"m 207 -46 l 267 -46 l 864 999 l 803 999 z m 296 951 l 93 757 l 94 756 l 185 788 l 185 471 l 103 413 l 385 413 l 296 471 z m 1006 131 l 1006 171 l 885 171 l 885 400 l 772 243 l 772 172 l 642 172 l 906 526 l 771 526 l 546 132 l 774 132 l 774 58 l 692 0 l 974 0 l 885 58 l 885 131 z "},"½":{"ha":1086,"x_min":0,"x_max":0,"o":"m 150 -46 l 210 -46 l 807 999 l 746 999 z m 275 951 l 72 757 l 74 756 l 164 788 l 164 471 l 82 413 l 364 413 l 275 471 z m 599 0 l 993 0 l 1013 213 l 1010 213 l 956 106 l 765 103 l 721 99 l 718 103 b 974 389 799 192 974 264 b 731 525 974 482 854 525 l 604 525 l 604 372 l 608 372 b 744 497 640 451 678 497 b 846 406 808 497 846 461 b 592 29 846 244 669 88 z "},"¾":{"ha":1121,"x_min":0,"x_max":0,"o":"m 256 -46 l 315 -46 l 913 999 l 851 999 z m 76 411 b 463 590 175 411 463 463 b 246 707 463 675 338 700 b 454 844 386 746 454 786 b 226 951 454 925 349 951 l 82 951 l 82 801 l 86 801 b 214 924 114 864 144 924 b 328 832 282 924 328 889 b 158 701 328 757 218 722 l 126 692 l 129 676 b 158 682 140 678 149 681 b 314 560 244 667 314 638 b 69 438 314 467 164 438 z m 1054 131 l 1054 171 l 933 171 l 933 400 l 821 243 l 821 172 l 690 172 l 954 526 l 819 526 l 594 132 l 822 132 l 822 58 l 740 0 l 1022 0 l 933 58 l 933 131 z "},"¿":{"ha":700,"x_min":0,"x_max":0,"o":"m 463 439 l 575 568 l 463 696 l 350 568 z m 626 -306 l 594 -68 l 583 -69 b 408 -254 554 -172 510 -254 b 306 -60 356 -254 306 -212 b 504 185 306 36 382 140 l 481 354 l 449 354 l 433 204 b 104 -90 346 157 104 90 b 513 -306 104 -281 322 -306 z "},"À":{"ha":1014,"x_min":0,"x_max":0,"o":"m 494 1207 l 321 1207 l 492 1028 l 511 1028 z m 333 0 l 207 108 l 279 297 l 622 297 l 703 96 l 582 0 l 989 0 l 890 93 l 532 965 l 471 965 l 135 110 l 40 0 z m 300 353 l 447 740 l 601 353 z "},"Á":{"ha":1014,"x_min":0,"x_max":0,"o":"m 500 1207 l 482 1028 l 501 1028 l 672 1207 z m 333 0 l 207 108 l 279 297 l 622 297 l 703 96 l 582 0 l 989 0 l 890 93 l 532 965 l 471 965 l 135 110 l 40 0 z m 300 353 l 447 740 l 601 353 z "},"Â":{"ha":1014,"x_min":0,"x_max":0,"o":"m 557 1207 l 447 1207 l 365 1028 l 386 1028 l 503 1125 l 621 1028 l 640 1028 z m 333 0 l 207 108 l 279 297 l 622 297 l 703 96 l 582 0 l 989 0 l 890 93 l 532 965 l 471 965 l 135 110 l 40 0 z m 300 353 l 447 740 l 601 353 z "},"Ã":{"ha":1010,"x_min":0,"x_max":0,"o":"m 672 1206 l 653 1214 b 594 1167 632 1188 614 1167 b 403 1182 533 1167 464 1176 l 319 1033 l 338 1021 b 390 1081 354 1051 374 1081 b 594 1065 456 1081 529 1071 z m 613 297 l 693 96 l 572 0 l 979 0 l 881 93 l 522 965 l 461 965 l 125 110 l 31 0 l 324 0 l 197 108 l 269 297 z m 589 360 l 293 360 l 438 740 z "},"Ä":{"ha":1014,"x_min":0,"x_max":0,"o":"m 439 1153 l 336 1274 l 235 1153 l 336 1031 z m 747 1153 l 646 1274 l 543 1153 l 646 1031 z m 333 0 l 207 108 l 279 297 l 622 297 l 703 96 l 582 0 l 989 0 l 890 93 l 532 965 l 471 965 l 135 110 l 40 0 z m 300 353 l 447 740 l 601 353 z "},"Å":{"ha":1014,"x_min":0,"x_max":0,"o":"m 371 1151 b 501 1015 371 1076 429 1015 b 631 1151 572 1015 631 1076 b 501 1288 631 1226 572 1288 b 371 1151 429 1288 371 1226 z m 417 1151 b 501 1240 417 1200 454 1240 b 585 1151 547 1240 585 1200 b 501 1063 585 1103 547 1063 b 417 1151 454 1063 417 1103 z m 333 0 l 207 108 l 279 297 l 622 297 l 703 96 l 582 0 l 989 0 l 890 93 l 532 965 l 471 965 l 135 110 l 40 0 z m 300 353 l 447 740 l 601 353 z "},"Æ":{"ha":1264,"x_min":0,"x_max":0,"o":"m 601 147 l 522 0 l 1185 0 l 1200 301 l 1193 304 l 1003 50 l 774 50 l 774 461 l 1135 461 l 1135 517 l 774 517 l 774 901 l 990 901 l 1153 660 l 1160 660 l 1160 951 l 713 951 l 714 953 l 453 953 l 554 868 l 129 118 l 29 0 l 306 0 l 196 106 l 303 297 l 601 297 z m 579 799 l 597 835 l 601 831 l 601 353 l 333 353 z "},"Ç":{"ha":904,"x_min":0,"x_max":0,"o":"m 817 307 b 535 146 774 236 694 146 b 260 564 350 146 260 329 b 481 894 260 747 326 894 b 761 669 618 894 708 786 l 769 669 l 769 951 l 563 951 b 68 443 244 951 68 690 b 432 -17 68 179 207 -4 l 372 -106 l 372 -110 b 517 -172 425 -124 517 -128 b 449 -204 517 -192 485 -204 b 353 -165 411 -204 379 -192 l 338 -190 b 446 -237 372 -222 401 -237 b 576 -133 513 -237 576 -201 b 457 -47 576 -87 494 -62 l 472 -17 b 836 293 664 -7 779 153 z "},"È":{"ha":822,"x_min":0,"x_max":0,"o":"m 454 1207 l 282 1207 l 453 1028 l 472 1028 z m 540 901 l 703 660 l 710 660 l 710 951 l 72 951 l 151 807 l 151 147 l 72 0 l 735 0 l 750 301 l 743 304 l 553 50 l 324 50 l 324 461 l 685 461 l 685 517 l 324 517 l 324 901 z "},"É":{"ha":822,"x_min":0,"x_max":0,"o":"m 378 1207 l 361 1028 l 381 1028 l 551 1207 z m 540 901 l 703 660 l 710 660 l 710 951 l 72 951 l 151 807 l 151 147 l 72 0 l 735 0 l 750 301 l 743 304 l 553 50 l 324 50 l 324 461 l 685 461 l 685 517 l 324 517 l 324 901 z "},"Ê":{"ha":822,"x_min":0,"x_max":0,"o":"m 475 1207 l 365 1207 l 283 1028 l 303 1028 l 421 1125 l 538 1028 l 558 1028 z m 540 901 l 703 660 l 710 660 l 710 951 l 72 951 l 151 807 l 151 147 l 72 0 l 735 0 l 750 301 l 743 304 l 553 50 l 324 50 l 324 461 l 685 461 l 685 517 l 324 517 l 324 901 z "},"Ë":{"ha":822,"x_min":0,"x_max":0,"o":"m 369 1151 l 268 1272 l 165 1151 l 268 1029 z m 678 1151 l 578 1272 l 475 1151 l 578 1029 z m 540 901 l 703 660 l 710 660 l 710 951 l 72 951 l 151 807 l 151 147 l 72 0 l 735 0 l 750 301 l 743 304 l 553 50 l 324 50 l 324 461 l 685 461 l 685 517 l 324 517 l 324 901 z "},"Ì":{"ha":497,"x_min":0,"x_max":0,"o":"m 283 1207 l 110 1207 l 281 1028 l 300 1028 z m 163 147 l 65 0 l 432 0 l 335 147 l 335 804 l 432 951 l 65 951 l 163 804 z "},"Í":{"ha":497,"x_min":0,"x_max":0,"o":"m 215 1207 l 199 1028 l 218 1028 l 389 1207 z m 163 147 l 65 0 l 432 0 l 335 147 l 335 804 l 432 951 l 65 951 l 163 804 z "},"Î":{"ha":497,"x_min":0,"x_max":0,"o":"m 307 1207 l 197 1207 l 115 1028 l 135 1028 l 253 1125 l 371 1028 l 390 1028 z m 163 147 l 65 0 l 432 0 l 335 147 l 335 804 l 432 951 l 65 951 l 163 804 z "},"Ï":{"ha":619,"x_min":0,"x_max":0,"o":"m 258 1153 l 156 1274 l 54 1153 l 156 1031 z m 565 1153 l 464 1274 l 361 1153 l 464 1031 z m 224 147 l 126 0 l 493 0 l 396 147 l 396 804 l 493 951 l 126 951 l 224 804 z "},"Ð":{"ha":983,"x_min":0,"x_max":0,"o":"m 56 951 l 154 804 l 154 525 l 56 525 l 56 456 l 154 456 l 154 147 l 56 0 l 386 0 b 914 531 711 0 914 194 b 408 951 914 728 807 951 z m 326 53 l 326 456 l 519 456 l 519 525 l 326 525 l 326 907 l 418 907 b 728 478 628 907 728 756 b 410 53 728 308 690 53 z "},"Ñ":{"ha":1050,"x_min":0,"x_max":0,"o":"m 700 1161 l 681 1169 b 622 1122 661 1143 643 1122 b 431 1138 561 1122 492 1132 l 347 989 l 365 976 b 419 1036 383 1007 401 1036 b 622 1021 483 1036 558 1026 z m 732 0 l 938 0 l 881 81 l 881 822 l 978 951 l 703 951 l 817 832 l 817 158 l 275 951 l 57 951 l 185 775 l 185 129 l 88 0 l 360 0 l 247 119 l 247 679 z "},"Ò":{"ha":1025,"x_min":0,"x_max":0,"o":"m 472 1207 l 300 1207 l 471 1028 l 490 1028 z m 954 518 b 563 969 954 744 806 969 b 71 435 240 969 71 714 b 463 -17 71 208 219 -17 b 954 518 785 -17 954 239 z m 469 910 b 769 350 657 910 769 636 b 556 42 769 240 715 42 b 258 603 368 42 258 317 b 469 910 258 713 290 910 z "},"Ó":{"ha":1025,"x_min":0,"x_max":0,"o":"m 479 1207 l 463 1028 l 482 1028 l 653 1207 z m 954 518 b 563 969 954 744 806 969 b 71 435 240 969 71 714 b 463 -17 71 208 219 -17 b 954 518 785 -17 954 239 z m 469 910 b 769 350 657 910 769 636 b 556 42 769 240 715 42 b 258 603 368 42 258 317 b 469 910 258 713 290 910 z "},"Ô":{"ha":1025,"x_min":0,"x_max":0,"o":"m 564 1207 l 454 1207 l 372 1028 l 392 1028 l 510 1125 l 628 1028 l 647 1028 z m 954 518 b 563 969 954 744 806 969 b 71 435 240 969 71 714 b 463 -17 71 208 219 -17 b 954 518 785 -17 954 239 z m 469 910 b 769 350 657 910 769 636 b 556 42 769 240 715 42 b 258 603 368 42 258 317 b 469 910 258 713 290 910 z "},"Õ":{"ha":1025,"x_min":0,"x_max":0,"o":"m 318 1026 l 336 1014 b 389 1074 354 1044 372 1074 b 593 1058 454 1074 528 1064 l 671 1199 l 651 1207 b 593 1160 632 1181 613 1160 b 401 1175 532 1160 463 1169 z m 954 518 b 563 969 954 744 806 969 b 71 435 240 969 71 714 b 463 -17 71 208 219 -17 b 954 518 785 -17 954 239 z m 469 910 b 769 350 657 910 769 636 b 556 42 769 240 715 42 b 258 603 368 42 258 317 b 469 910 258 713 290 910 z "},"Ö":{"ha":1025,"x_min":0,"x_max":0,"o":"m 454 1150 l 354 1271 l 250 1150 l 354 1028 z m 764 1150 l 664 1271 l 560 1150 l 664 1028 z m 954 518 b 563 969 954 744 806 969 b 71 435 240 969 71 714 b 463 -17 71 208 219 -17 b 954 518 785 -17 954 239 z m 469 910 b 769 350 657 910 769 636 b 556 42 769 240 715 42 b 258 603 368 42 258 317 b 469 910 258 713 290 910 z "},"×":{"ha":546,"x_min":0,"x_max":0,"o":"m 444 101 l 515 172 l 343 353 l 503 521 l 432 600 l 269 429 l 114 593 l 43 522 l 200 357 l 31 179 l 101 100 l 274 281 z "},"Ø":{"ha":1044,"x_min":0,"x_max":0,"o":"m 981 958 l 892 958 l 819 875 b 576 969 757 933 675 969 b 85 435 254 969 85 714 b 183 132 85 325 119 215 l 64 -7 l 153 -7 l 229 81 b 476 -17 292 21 376 -17 b 968 518 799 -17 968 239 b 867 825 968 629 932 742 z m 319 290 b 272 603 288 383 272 492 b 482 910 272 713 304 910 b 703 738 576 910 650 842 z m 731 668 b 783 350 765 575 783 464 b 569 42 783 240 729 42 b 347 221 475 42 399 113 z "},"Ù":{"ha":1060,"x_min":0,"x_max":0,"o":"m 607 1207 l 435 1207 l 604 1028 l 625 1028 z m 349 804 l 446 951 l 78 951 l 175 806 l 175 307 b 550 -21 175 -21 469 -21 b 836 133 686 -21 789 42 b 890 385 874 206 890 258 l 890 826 l 989 951 l 725 951 l 826 826 l 826 418 b 600 46 826 107 706 46 b 349 328 471 46 349 71 z "},"Ú":{"ha":1060,"x_min":0,"x_max":0,"o":"m 549 1207 l 532 1028 l 551 1028 l 722 1207 z m 349 804 l 446 951 l 78 951 l 175 806 l 175 307 b 550 -21 175 -21 469 -21 b 836 133 686 -21 789 42 b 890 385 874 206 890 258 l 890 826 l 989 951 l 725 951 l 826 826 l 826 418 b 600 46 826 107 706 46 b 349 328 471 46 349 71 z "},"Û":{"ha":1060,"x_min":0,"x_max":0,"o":"m 626 1207 l 517 1207 l 435 1028 l 454 1028 l 572 1125 l 689 1028 l 710 1028 z m 349 804 l 446 951 l 78 951 l 175 806 l 175 307 b 550 -21 175 -21 469 -21 b 836 133 686 -21 789 42 b 890 385 874 206 890 258 l 890 826 l 989 951 l 725 951 l 826 826 l 826 418 b 600 46 826 107 706 46 b 349 328 471 46 349 71 z "},"Ü":{"ha":1060,"x_min":0,"x_max":0,"o":"m 533 1150 l 426 1276 l 319 1150 l 426 1022 z m 857 1150 l 751 1276 l 643 1150 l 751 1022 z m 349 804 l 446 951 l 78 951 l 175 806 l 175 307 b 550 -21 175 -21 469 -21 b 836 133 686 -21 789 42 b 890 385 874 206 890 258 l 890 826 l 989 951 l 725 951 l 826 826 l 826 418 b 600 46 826 107 706 46 b 349 328 471 46 349 71 z "},"Ý":{"ha":957,"x_min":0,"x_max":0,"o":"m 676 1207 l 503 1207 l 486 1028 l 506 1028 z m 392 140 l 281 0 l 675 0 l 564 140 l 564 442 l 785 821 l 921 951 l 585 951 l 697 807 l 524 496 l 503 542 l 347 804 l 349 804 l 461 951 l 36 951 l 157 804 l 392 390 z "},"Þ":{"ha":840,"x_min":0,"x_max":0,"o":"m 343 775 l 343 804 l 440 951 l 72 951 l 171 804 l 171 147 l 72 0 l 461 0 l 343 147 l 343 226 b 464 236 374 226 422 229 b 758 521 603 254 758 350 b 390 775 758 751 485 775 z m 343 733 b 569 504 485 733 569 660 b 343 274 569 349 486 274 z "},"ß":{"ha":811,"x_min":0,"x_max":0,"o":"m 42 681 l 139 593 l 139 281 l 153 -318 l 164 -318 b 299 356 226 -81 299 -40 l 299 681 b 411 925 269 786 304 925 b 524 754 468 925 524 865 b 372 456 524 656 472 579 b 628 122 476 369 628 244 b 564 53 628 71 606 53 b 400 174 483 53 425 110 l 396 174 l 382 0 l 482 0 b 738 208 660 0 738 117 b 486 561 738 356 589 486 b 628 799 547 622 628 707 b 456 964 628 875 599 964 b 146 681 301 964 146 814 z "},"à":{"ha":704,"x_min":0,"x_max":0,"o":"m 394 946 l 228 946 l 399 767 l 419 767 z m 222 0 b 449 518 304 132 400 319 l 432 357 l 432 0 l 697 0 l 594 119 l 594 606 l 647 681 l 489 681 b 40 226 199 675 40 485 b 119 -15 40 114 78 14 z m 244 107 b 213 301 228 107 213 165 b 435 640 213 442 249 639 b 244 107 433 493 271 107 z "},"á":{"ha":704,"x_min":0,"x_max":0,"o":"m 394 946 l 369 767 l 390 767 l 561 946 z m 222 0 b 449 518 304 132 400 319 l 432 357 l 432 0 l 697 0 l 594 119 l 594 606 l 647 681 l 489 681 b 40 226 199 675 40 485 b 119 -15 40 114 78 14 z m 244 107 b 213 301 228 107 213 165 b 435 640 213 442 249 639 b 244 107 433 493 271 107 z "},"â":{"ha":704,"x_min":0,"x_max":0,"o":"m 447 946 l 333 946 l 265 767 l 286 771 l 390 864 l 494 771 l 515 767 z m 222 0 b 449 518 304 132 400 319 l 432 357 l 432 0 l 697 0 l 594 119 l 594 606 l 647 681 l 489 681 b 40 226 199 675 40 485 b 119 -15 40 114 78 14 z m 244 107 b 213 301 228 107 213 165 b 435 640 213 442 249 639 b 244 107 433 493 271 107 z "},"ã":{"ha":704,"x_min":0,"x_max":0,"o":"m 232 794 l 251 782 b 304 842 268 813 286 842 b 500 824 368 842 435 829 l 578 967 l 558 975 b 500 928 538 949 519 928 b 315 946 439 928 376 940 z m 222 0 b 449 518 304 132 400 319 l 432 357 l 432 0 l 697 0 l 594 119 l 594 606 l 647 681 l 489 681 b 40 226 199 675 40 485 b 119 -15 40 114 78 14 z m 244 107 b 213 301 228 107 213 165 b 435 640 213 442 249 639 b 244 107 433 493 271 107 z "},"ä":{"ha":704,"x_min":0,"x_max":0,"o":"m 347 864 l 263 969 l 176 864 l 263 757 z m 604 864 l 519 969 l 433 864 l 519 757 z m 222 0 b 449 518 304 132 400 319 l 432 357 l 432 0 l 697 0 l 594 119 l 594 606 l 647 681 l 489 681 b 40 226 199 675 40 485 b 119 -15 40 114 78 14 z m 244 107 b 213 301 228 107 213 165 b 435 640 213 442 249 639 b 244 107 433 493 271 107 z "},"å":{"ha":704,"x_min":0,"x_max":0,"o":"m 282 872 b 390 758 282 810 331 758 b 499 872 450 758 499 810 b 390 986 499 935 450 986 b 282 872 331 986 282 935 z m 321 872 b 390 946 321 913 351 946 b 460 872 429 946 460 913 b 390 799 460 832 429 799 b 321 872 351 799 321 832 z m 222 0 b 449 518 304 132 400 319 l 432 357 l 432 0 l 697 0 l 594 119 l 594 606 l 647 681 l 489 681 b 40 226 199 675 40 485 b 119 -15 40 114 78 14 z m 244 107 b 213 301 228 107 213 165 b 435 640 213 442 249 639 b 244 107 433 493 271 107 z "},"æ":{"ha":892,"x_min":0,"x_max":0,"o":"m 825 315 b 629 82 825 315 729 82 b 529 276 579 82 542 161 l 835 539 b 610 693 835 569 782 732 b 28 226 186 675 28 485 b 107 -15 28 114 65 14 l 210 0 b 349 264 256 74 306 164 l 349 261 b 554 -17 349 76 431 -17 b 847 301 689 -17 811 182 z m 526 310 b 524 372 525 329 524 350 b 592 656 524 594 567 640 b 686 461 610 668 679 601 z m 232 107 b 200 301 215 107 200 165 b 422 640 200 442 236 639 b 232 107 421 493 258 107 z "},"ç":{"ha":529,"x_min":0,"x_max":0,"o":"m 496 317 b 311 82 432 169 357 82 b 215 374 249 82 215 194 b 265 593 215 465 239 593 l 486 500 l 490 506 l 393 700 l 379 700 b 40 254 210 657 40 465 b 226 -15 40 79 119 -7 l 163 -115 b 310 -185 265 -140 310 -147 b 244 -221 310 -207 282 -221 b 147 -187 208 -221 175 -208 l 135 -206 b 239 -246 167 -232 199 -246 b 372 -149 308 -246 372 -199 b 240 -62 372 -103 307 -78 l 264 -14 b 518 303 339 3 451 108 z "},"è":{"ha":579,"x_min":0,"x_max":0,"o":"m 301 974 l 135 974 l 306 794 l 326 794 z m 517 315 b 321 82 517 315 421 82 b 221 276 271 82 233 161 l 526 539 b 353 699 526 567 485 699 b 40 261 182 699 40 461 b 246 -17 40 76 122 -17 b 539 301 381 -17 503 182 z m 218 310 b 215 372 217 329 215 350 b 283 656 215 594 258 640 b 378 461 301 668 371 601 z "},"é":{"ha":579,"x_min":0,"x_max":0,"o":"m 301 974 l 276 794 l 297 794 l 468 974 z m 517 315 b 321 82 517 315 421 82 b 221 276 271 82 233 161 l 526 539 b 353 699 526 567 485 699 b 40 261 182 699 40 461 b 246 -17 40 76 122 -17 b 539 301 381 -17 503 182 z m 218 310 b 215 372 217 329 215 350 b 283 656 215 594 258 640 b 378 461 301 668 371 601 z "},"ê":{"ha":579,"x_min":0,"x_max":0,"o":"m 354 974 l 240 974 l 172 794 l 193 799 l 297 892 l 401 799 l 422 794 z m 517 315 b 321 82 517 315 421 82 b 221 276 271 82 233 161 l 526 539 b 353 699 526 567 485 699 b 40 261 182 699 40 461 b 246 -17 40 76 122 -17 b 539 301 381 -17 503 182 z m 218 310 b 215 372 217 329 215 350 b 283 656 215 594 258 640 b 378 461 301 668 371 601 z "},"ë":{"ha":579,"x_min":0,"x_max":0,"o":"m 254 892 l 169 997 l 83 892 l 169 785 z m 511 892 l 426 997 l 340 892 l 426 785 z m 517 315 b 321 82 517 315 421 82 b 221 276 271 82 233 161 l 526 539 b 353 699 526 567 485 699 b 40 261 182 699 40 461 b 246 -17 40 76 122 -17 b 539 301 381 -17 503 182 z m 218 310 b 215 372 217 329 215 350 b 283 656 215 594 258 640 b 378 461 301 668 371 601 z "},"ì":{"ha":449,"x_min":0,"x_max":0,"o":"m 208 946 l 42 946 l 213 767 l 233 767 z m 306 119 l 306 694 l 51 601 l 146 494 l 146 0 l 408 0 z "},"í":{"ha":449,"x_min":0,"x_max":0,"o":"m 208 946 l 183 767 l 204 767 l 375 946 z m 294 119 l 294 694 l 40 601 l 135 494 l 135 0 l 397 0 z "},"î":{"ha":449,"x_min":0,"x_max":0,"o":"m 261 946 l 147 946 l 79 767 l 100 771 l 204 864 l 308 771 l 329 767 z m 297 119 l 297 694 l 43 601 l 138 494 l 138 0 l 400 0 z "},"ï":{"ha":449,"x_min":0,"x_max":0,"o":"m 161 864 l 76 969 l -10 864 l 76 757 z m 418 864 l 333 969 l 247 864 l 333 757 z m 296 119 l 296 694 l 42 601 l 136 494 l 136 0 l 399 0 z "},"ð":{"ha":682,"x_min":0,"x_max":0,"o":"m 504 946 l 475 985 l 340 896 b 171 988 289 929 232 961 l 106 963 b 282 857 168 936 228 903 l 156 774 l 183 735 l 319 824 b 419 696 356 788 389 746 l 376 696 b 40 276 181 697 40 500 b 303 -19 40 89 154 -19 b 656 397 492 -19 656 179 b 382 865 656 561 556 733 z m 349 26 b 215 369 307 26 215 139 b 322 653 215 615 281 653 b 456 613 382 653 440 625 b 494 332 483 518 494 422 b 349 26 494 171 460 26 z "},"ñ":{"ha":754,"x_min":0,"x_max":0,"o":"m 224 794 l 243 782 b 296 842 260 813 278 842 b 492 824 360 842 426 829 l 569 967 l 550 975 b 492 928 529 949 511 928 b 307 946 431 928 368 940 z m 268 694 l 14 601 l 108 494 l 108 0 l 289 0 l 268 85 b 436 569 268 201 367 432 l 447 568 b 475 200 463 514 475 417 l 475 0 l 738 0 l 635 119 l 635 281 b 596 715 635 564 632 604 l 460 681 b 268 233 431 640 322 439 z "},"ò":{"ha":696,"x_min":0,"x_max":0,"o":"m 346 946 l 179 946 l 350 767 l 371 767 z m 40 276 b 303 -19 40 89 154 -19 b 656 396 492 -19 656 179 b 376 697 656 579 550 697 b 40 276 181 697 40 500 z m 322 653 b 472 333 364 653 472 578 b 349 26 472 104 390 26 b 215 369 307 26 215 139 b 322 653 215 615 281 653 z "},"ó":{"ha":696,"x_min":0,"x_max":0,"o":"m 346 946 l 321 767 l 342 767 l 513 946 z m 40 276 b 303 -19 40 89 154 -19 b 656 396 492 -19 656 179 b 376 697 656 579 550 697 b 40 276 181 697 40 500 z m 322 653 b 472 333 364 653 472 578 b 349 26 472 104 390 26 b 215 369 307 26 215 139 b 322 653 215 615 281 653 z "},"ô":{"ha":696,"x_min":0,"x_max":0,"o":"m 399 946 l 285 946 l 217 767 l 238 771 l 342 864 l 446 771 l 467 767 z m 40 276 b 376 697 40 500 181 697 b 656 396 550 697 656 579 b 303 -19 656 179 492 -19 b 40 276 154 -19 40 89 z m 322 653 b 215 369 281 653 215 615 b 349 26 215 139 307 26 b 472 333 390 26 472 104 b 322 653 472 578 364 653 z "},"õ":{"ha":696,"x_min":0,"x_max":0,"o":"m 183 794 l 203 782 b 256 842 219 813 238 842 b 451 824 319 842 386 829 l 529 967 l 510 975 b 451 928 489 949 471 928 b 267 946 390 928 328 940 z m 40 276 b 376 697 40 500 181 697 b 656 396 550 697 656 579 b 303 -19 656 179 492 -19 b 40 276 154 -19 40 89 z m 322 653 b 215 369 281 653 215 615 b 349 26 215 139 307 26 b 472 333 390 26 472 104 b 322 653 472 578 364 653 z "},"ö":{"ha":696,"x_min":0,"x_max":0,"o":"m 299 864 l 214 969 l 128 864 l 214 757 z m 556 864 l 471 969 l 385 864 l 471 757 z m 40 276 b 376 697 40 500 181 697 b 656 396 550 697 656 579 b 303 -19 656 179 492 -19 b 40 276 154 -19 40 89 z m 322 653 b 215 369 281 653 215 615 b 349 26 215 139 307 26 b 472 333 390 26 472 104 b 322 653 472 578 364 653 z "},"ø":{"ha":696,"x_min":0,"x_max":0,"o":"m 657 704 l 603 704 l 554 640 b 376 697 508 678 447 697 b 40 276 181 697 40 500 b 108 67 40 188 65 118 l 40 -19 l 94 -19 l 139 38 b 303 -19 183 0 240 -19 b 656 396 492 -19 656 179 b 585 611 656 485 631 558 z m 229 224 b 215 369 221 265 215 314 b 322 653 215 615 281 653 b 449 507 351 653 415 615 z m 463 453 b 472 333 468 419 472 379 b 349 26 472 104 390 26 b 243 171 321 26 274 74 z "},"ù":{"ha":725,"x_min":0,"x_max":0,"o":"m 356 971 l 189 971 l 360 792 l 381 792 z m 453 0 l 707 0 l 613 107 l 613 681 l 432 681 l 453 596 b 279 101 453 476 349 236 b 269 481 274 157 269 246 l 269 708 l 7 681 l 110 561 l 110 226 b 136 -11 110 125 128 33 l 261 0 b 453 447 290 40 399 242 z "},"ú":{"ha":725,"x_min":0,"x_max":0,"o":"m 356 971 l 331 792 l 351 792 l 522 971 z m 453 0 l 707 0 l 613 107 l 613 681 l 432 681 l 453 596 b 279 101 453 476 349 236 b 269 481 274 157 269 246 l 269 708 l 7 681 l 110 561 l 110 226 b 136 -11 110 125 128 33 l 261 0 b 453 447 290 40 399 242 z "},"û":{"ha":725,"x_min":0,"x_max":0,"o":"m 408 971 l 294 971 l 226 792 l 247 796 l 351 889 l 456 796 l 476 792 z m 453 0 l 707 0 l 613 107 l 613 681 l 432 681 l 453 596 b 279 101 453 476 349 236 b 269 481 274 157 269 246 l 269 708 l 7 681 l 110 561 l 110 226 b 136 -11 110 125 128 33 l 261 0 b 453 447 290 40 399 242 z "},"ü":{"ha":725,"x_min":0,"x_max":0,"o":"m 308 889 l 224 994 l 138 889 l 224 782 z m 565 889 l 481 994 l 394 889 l 481 782 z m 453 0 l 707 0 l 613 107 l 613 681 l 432 681 l 453 596 b 279 101 453 476 349 236 b 269 481 274 157 269 246 l 269 708 l 7 681 l 110 561 l 110 226 b 136 -11 110 125 128 33 l 261 0 b 453 447 290 40 399 242 z "},"ý":{"ha":717,"x_min":0,"x_max":0,"o":"m 363 946 l 338 767 l 358 767 l 529 946 z m 471 35 b 317 -240 469 -187 406 -240 b 49 -125 260 -240 129 -192 l 40 -135 l 194 -324 l 203 -324 b 629 104 383 -324 629 -126 l 629 681 l 472 681 l 472 583 b 308 118 472 522 453 254 l 264 681 l 7 681 l 121 571 l 172 -21 b 471 349 310 22 410 188 z "},"þ":{"ha":697,"x_min":0,"x_max":0,"o":"m 424 681 b 263 242 363 558 304 407 l 263 986 l 8 907 l 103 800 l 103 -207 l 69 -299 l 365 -299 l 263 -221 l 263 -54 b 653 376 519 -21 653 194 b 561 706 653 513 604 639 z m 263 69 b 414 554 263 203 386 554 b 481 301 439 554 481 449 b 263 -18 481 182 447 -17 z "},"ÿ":{"ha":717,"x_min":0,"x_max":0,"o":"m 315 864 l 231 969 l 144 864 l 231 757 z m 572 864 l 488 969 l 401 864 l 488 757 z m 471 35 b 317 -240 469 -187 406 -240 b 49 -125 260 -240 129 -192 l 40 -135 l 194 -324 l 203 -324 b 629 104 383 -324 629 -126 l 629 681 l 472 681 l 472 583 b 308 118 472 522 453 254 l 264 681 l 7 681 l 121 571 l 172 -21 b 471 349 310 22 410 188 z "},"Ć":{"ha":904,"x_min":0,"x_max":0,"o":"m 469 1207 l 453 1028 l 472 1028 l 643 1207 z m 769 669 l 769 951 l 563 951 b 68 443 244 951 68 690 b 454 -17 68 171 217 -17 b 836 293 657 -17 778 149 l 817 307 b 535 146 774 236 694 146 b 260 564 350 146 260 329 b 481 894 260 747 326 894 b 761 669 618 894 708 786 z "},"ć":{"ha":529,"x_min":0,"x_max":0,"o":"m 317 946 l 292 767 l 313 767 l 483 946 z m 486 500 l 490 506 l 393 700 l 379 700 b 40 254 210 657 40 465 b 244 -17 40 69 129 -17 b 518 303 317 -17 446 90 l 496 317 b 311 82 432 169 357 82 b 215 374 249 82 215 194 b 265 593 215 465 239 593 z "},"Ĉ":{"ha":904,"x_min":0,"x_max":0,"o":"m 563 1207 l 453 1207 l 371 1028 l 390 1028 l 508 1125 l 626 1028 l 646 1028 z m 769 669 l 769 951 l 563 951 b 68 443 244 951 68 690 b 454 -17 68 171 217 -17 b 836 293 657 -17 778 149 l 817 307 b 535 146 774 236 694 146 b 260 564 350 146 260 329 b 481 894 260 747 326 894 b 761 669 618 894 708 786 z "},"ĉ":{"ha":529,"x_min":0,"x_max":0,"o":"m 369 946 l 256 946 l 188 767 l 208 771 l 313 864 l 417 771 l 438 767 z m 486 500 l 490 506 l 393 700 l 379 700 b 40 254 210 657 40 465 b 244 -17 40 69 129 -17 b 518 303 317 -17 446 90 l 496 317 b 311 82 432 169 357 82 b 215 374 249 82 215 194 b 265 593 215 465 239 593 z "},"ċ":{"ha":529,"x_min":0,"x_max":0,"o":"m 417 863 l 313 971 l 207 863 l 313 753 z m 486 500 l 490 506 l 393 700 l 379 700 b 40 254 210 657 40 465 b 244 -17 40 69 129 -17 b 518 303 317 -17 446 90 l 496 317 b 311 82 432 169 357 82 b 215 374 249 82 215 194 b 265 593 215 465 239 593 z "},"Č":{"ha":904,"x_min":0,"x_max":0,"o":"m 636 1207 l 617 1207 l 499 1110 l 382 1207 l 361 1207 l 443 1028 l 553 1028 z m 769 669 l 769 951 l 563 951 b 68 443 244 951 68 690 b 454 -17 68 171 217 -17 b 836 293 657 -17 778 149 l 817 307 b 535 146 774 236 694 146 b 260 564 350 146 260 329 b 481 894 260 747 326 894 b 761 669 618 894 708 786 z "},"č":{"ha":529,"x_min":0,"x_max":0,"o":"m 438 946 l 417 942 l 313 849 l 208 942 l 188 946 l 256 767 l 369 767 z m 486 500 l 490 506 l 393 700 l 379 700 b 40 254 210 657 40 465 b 244 -17 40 69 129 -17 b 518 303 317 -17 446 90 l 496 317 b 311 82 432 169 357 82 b 215 374 249 82 215 194 b 265 593 215 465 239 593 z "},"Ď":{"ha":1021,"x_min":0,"x_max":0,"o":"m 622 1207 l 603 1207 l 485 1110 l 367 1207 l 347 1207 l 429 1028 l 539 1028 z m 78 951 l 175 804 l 175 147 l 78 0 l 407 0 b 950 517 732 0 950 196 b 429 951 950 714 829 951 z m 347 53 l 347 907 l 440 907 b 768 478 649 907 768 756 b 431 53 768 308 711 53 z "},"ď":{"ha":960,"x_min":0,"x_max":0,"o":"m 714 596 b 908 853 743 615 908 717 b 801 988 908 900 844 960 l 692 869 l 743 826 b 782 754 760 807 782 790 b 696 610 782 701 740 649 z m 706 0 l 603 97 l 603 986 l 349 907 l 443 800 l 443 678 b 40 226 183 650 40 463 b 128 -15 40 114 86 14 l 231 0 b 457 518 313 132 408 319 l 440 357 l 440 -12 z m 253 107 b 213 301 236 107 213 165 b 443 640 213 442 257 639 b 253 107 442 493 279 107 z "},"Ė":{"ha":822,"x_min":0,"x_max":0,"o":"m 511 1139 l 419 1250 l 325 1139 l 419 1026 z m 540 901 l 703 660 l 710 660 l 710 951 l 72 951 l 151 807 l 151 147 l 72 0 l 735 0 l 750 301 l 743 304 l 553 50 l 324 50 l 324 461 l 685 461 l 685 517 l 324 517 l 324 901 z "},"ė":{"ha":579,"x_min":0,"x_max":0,"o":"m 401 890 l 297 999 l 192 890 l 297 781 z m 517 315 b 321 82 517 315 421 82 b 221 276 271 82 233 161 l 526 539 b 353 699 526 567 485 699 b 40 261 182 699 40 461 b 246 -17 40 76 122 -17 b 539 301 381 -17 503 182 z m 218 310 b 215 372 217 329 215 350 b 283 656 215 594 258 640 b 378 461 301 668 371 601 z "},"Ě":{"ha":822,"x_min":0,"x_max":0,"o":"m 564 1207 l 544 1207 l 426 1110 l 310 1207 l 289 1207 l 371 1028 l 481 1028 z m 540 901 l 703 660 l 710 660 l 710 951 l 72 951 l 151 807 l 151 147 l 72 0 l 735 0 l 750 301 l 743 304 l 553 50 l 324 50 l 324 461 l 685 461 l 685 517 l 324 517 l 324 901 z "},"ě":{"ha":579,"x_min":0,"x_max":0,"o":"m 422 974 l 401 969 l 297 876 l 193 969 l 172 974 l 240 794 l 354 794 z m 517 315 b 321 82 517 315 421 82 b 221 276 271 82 233 161 l 526 539 b 353 699 526 567 485 699 b 40 261 182 699 40 461 b 246 -17 40 76 122 -17 b 539 301 381 -17 503 182 z m 218 310 b 215 372 217 329 215 350 b 283 656 215 594 258 640 b 378 461 301 668 371 601 z "},"ı":{"ha":449,"x_min":0,"x_max":0,"o":"m 304 119 l 304 694 l 43 601 l 138 494 l 138 119 l 35 0 l 407 0 z "},"Ĳ":{"ha":960,"x_min":0,"x_max":0,"o":"m 174 147 l 76 0 l 443 0 l 346 147 l 346 804 l 443 951 l 76 951 l 174 804 z m 786 804 l 883 951 l 517 951 l 614 804 l 614 -101 b 585 -239 614 -147 601 -204 l 594 -244 b 786 6 668 -197 786 -101 z "},"ĳ":{"ha":774,"x_min":0,"x_max":0,"o":"m 299 888 l 183 1015 l 67 888 l 183 758 z m 708 888 l 596 1015 l 482 888 l 596 758 z m 271 119 l 271 694 l 17 601 l 111 494 l 111 0 l 374 0 z m 679 694 l 431 601 l 521 494 l 521 -87 b 490 -308 521 -185 513 -279 l 499 -312 b 679 8 581 -240 679 -124 z "},"Ĺ":{"ha":847,"x_min":0,"x_max":0,"o":"m 233 1207 l 217 1028 l 236 1028 l 407 1207 z m 153 807 l 153 147 l 74 0 l 774 0 l 788 301 l 782 301 l 590 50 l 325 50 l 325 806 l 425 951 l 74 951 z "},"Ľ":{"ha":853,"x_min":0,"x_max":0,"o":"m 567 596 b 761 853 596 615 761 717 b 654 988 761 900 697 960 l 544 869 l 596 826 b 635 754 613 807 635 790 b 549 610 635 701 593 649 z m 153 807 l 153 147 l 74 0 l 774 0 l 788 301 l 782 301 l 590 50 l 325 50 l 325 806 l 425 951 l 74 951 z "},"Ŀ":{"ha":853,"x_min":0,"x_max":0,"o":"m 153 807 l 153 147 l 74 0 l 774 0 l 788 301 l 782 301 l 590 50 l 325 50 l 325 806 l 425 951 l 74 951 z m 738 526 l 625 656 l 511 526 l 625 399 z "},"ŀ":{"ha":613,"x_min":0,"x_max":0,"o":"m 111 800 l 111 758 l 17 718 l 111 611 l 111 0 l 374 0 l 271 119 l 271 986 l 17 907 z m 596 365 l 483 494 l 369 365 l 483 238 z "},"Ł":{"ha":867,"x_min":0,"x_max":0,"o":"m 164 147 l 85 0 l 785 0 l 799 301 l 793 301 l 601 50 l 336 50 l 336 453 l 510 506 l 510 594 l 336 540 l 336 806 l 436 951 l 85 951 l 164 807 l 164 488 l 33 447 l 33 361 l 164 401 z "},"Ń":{"ha":1050,"x_min":0,"x_max":0,"o":"m 499 1207 l 482 1028 l 501 1028 l 672 1207 z m 356 0 l 242 119 l 242 676 l 732 0 l 938 0 l 881 81 l 881 822 l 978 951 l 694 951 l 808 832 l 808 181 l 260 951 l 42 951 l 169 775 l 169 129 l 72 0 z "},"Ň":{"ha":1050,"x_min":0,"x_max":0,"o":"m 664 1207 l 644 1207 l 526 1110 l 410 1207 l 389 1207 l 471 1028 l 581 1028 z m 356 0 l 242 119 l 242 676 l 732 0 l 938 0 l 881 81 l 881 822 l 978 951 l 694 951 l 808 832 l 808 181 l 260 951 l 42 951 l 169 775 l 169 129 l 72 0 z "},"Œ":{"ha":1381,"x_min":0,"x_max":0,"o":"m 868 461 l 1229 461 l 1229 517 l 868 517 l 868 901 l 1086 901 l 1247 660 l 1256 660 l 1256 951 l 571 951 b 79 435 249 951 79 714 b 471 0 79 208 228 0 l 1281 0 l 1294 301 l 1288 304 l 1097 50 l 868 50 z m 696 900 l 696 50 l 564 50 b 267 550 376 50 267 278 b 533 900 267 654 308 900 z "},"œ":{"ha":1021,"x_min":0,"x_max":0,"o":"m 954 315 b 758 82 954 315 858 82 b 658 276 708 82 671 161 l 964 539 b 739 693 964 569 911 732 b 600 592 703 685 650 650 b 376 697 551 658 475 697 b 40 276 181 697 40 500 b 303 -19 40 89 154 -19 b 519 75 383 -19 458 17 b 683 -17 556 14 613 -17 b 976 301 818 -17 940 182 z m 656 310 l 653 350 b 656 396 654 365 656 381 b 654 433 656 408 656 421 b 721 656 661 603 699 642 b 815 461 739 668 808 601 z m 349 26 b 215 369 307 26 215 139 b 322 653 215 615 281 653 b 472 333 364 653 472 578 b 349 26 472 104 390 26 z "},"Ŕ":{"ha":967,"x_min":0,"x_max":0,"o":"m 419 1207 l 403 1028 l 422 1028 l 593 1207 z m 932 0 l 792 136 l 586 471 b 792 706 693 513 792 592 b 394 951 792 936 489 951 l 76 951 l 175 804 l 175 147 l 76 0 l 444 0 l 347 147 l 347 428 l 410 433 b 664 0 486 324 574 161 z m 347 910 b 597 689 489 910 597 856 b 347 474 597 547 474 476 z "},"ŕ":{"ha":568,"x_min":0,"x_max":0,"o":"m 289 946 l 264 767 l 285 767 l 456 946 z m 581 465 l 585 471 l 468 700 l 450 700 b 260 253 368 583 300 408 l 260 694 l 6 601 l 100 494 l 100 0 l 271 0 l 260 85 b 397 515 260 225 378 507 z "},"Ř":{"ha":967,"x_min":0,"x_max":0,"o":"m 572 1207 l 551 1207 l 435 1110 l 317 1207 l 296 1207 l 379 1028 l 489 1028 z m 932 0 l 792 136 l 586 471 b 792 706 693 513 792 592 b 394 951 792 936 489 951 l 76 951 l 175 804 l 175 147 l 76 0 l 444 0 l 347 147 l 347 428 l 410 433 b 664 0 486 324 574 161 z m 347 910 b 597 689 489 910 597 856 b 347 474 597 547 474 476 z "},"ř":{"ha":568,"x_min":0,"x_max":0,"o":"m 410 946 l 389 942 l 285 849 l 181 942 l 160 946 l 228 767 l 342 767 z m 581 465 l 585 471 l 468 700 l 450 700 b 260 253 368 583 300 408 l 260 694 l 6 601 l 100 494 l 100 0 l 271 0 l 260 85 b 397 515 260 225 378 507 z "},"Ś":{"ha":728,"x_min":0,"x_max":0,"o":"m 349 1207 l 332 1028 l 351 1028 l 522 1207 z m 47 372 l 64 39 b 326 -11 128 8 240 -11 b 664 299 522 -11 664 76 b 181 781 664 608 181 554 b 307 907 181 861 233 907 b 581 674 426 907 532 821 l 592 672 l 592 972 l 528 951 l 339 951 b 51 683 143 951 51 826 b 518 167 51 344 518 421 b 369 42 518 81 440 42 b 63 372 229 42 107 192 z "},"ś":{"ha":476,"x_min":0,"x_max":0,"o":"m 261 946 l 236 767 l 257 767 l 428 946 z m 403 475 l 396 681 l 297 681 b 57 465 144 681 57 564 b 331 108 57 314 331 244 b 267 53 331 71 308 53 b 40 249 186 53 115 139 l 36 236 l 69 0 l 183 0 b 440 208 363 0 440 117 b 163 561 440 356 163 464 b 211 614 163 596 172 614 b 394 474 272 614 342 556 z "},"Š":{"ha":751,"x_min":0,"x_max":0,"o":"m 525 1207 l 504 1207 l 386 1110 l 269 1207 l 249 1207 l 331 1028 l 442 1028 z m 64 372 l 81 39 b 343 -11 144 8 257 -11 b 681 299 539 -11 681 76 b 197 781 681 608 197 554 b 324 907 197 861 250 907 b 597 674 443 907 549 821 l 608 672 l 608 972 l 544 951 l 356 951 b 68 683 160 951 68 826 b 535 167 68 344 535 421 b 386 42 535 81 457 42 b 79 372 246 42 124 192 z "},"š":{"ha":476,"x_min":0,"x_max":0,"o":"m 382 946 l 361 942 l 257 849 l 153 942 l 132 946 l 200 767 l 314 767 z m 403 475 l 396 681 l 297 681 b 57 465 144 681 57 564 b 331 108 57 314 331 244 b 267 53 331 71 308 53 b 40 249 186 53 115 139 l 36 236 l 69 0 l 183 0 b 440 208 363 0 440 117 b 163 561 440 356 163 464 b 211 614 163 596 172 614 b 394 474 272 614 342 556 z "},"Ť":{"ha":917,"x_min":0,"x_max":0,"o":"m 574 1207 l 554 1207 l 436 1110 l 319 1207 l 299 1207 l 381 1028 l 490 1028 z m 849 951 l 47 951 l 47 647 l 53 646 l 231 901 l 358 901 l 358 147 l 261 0 l 629 0 l 531 147 l 531 903 l 664 903 l 840 646 l 849 647 z "},"Ů":{"ha":1060,"x_min":0,"x_max":0,"o":"m 442 1122 b 572 986 442 1047 500 986 b 701 1122 643 986 701 1047 b 572 1258 701 1197 643 1258 b 442 1122 500 1258 442 1197 z m 488 1122 b 572 1211 488 1171 525 1211 b 657 1122 618 1211 657 1171 b 572 1033 657 1074 618 1033 b 488 1122 525 1033 488 1074 z m 349 804 l 446 951 l 78 951 l 175 806 l 175 307 b 550 -21 175 -21 469 -21 b 836 133 686 -21 789 42 b 890 385 874 206 890 258 l 890 826 l 989 951 l 725 951 l 826 826 l 826 418 b 600 46 826 107 706 46 b 349 328 471 46 349 71 z "},"ů":{"ha":725,"x_min":0,"x_max":0,"o":"m 243 897 b 351 783 243 835 292 783 b 460 897 411 783 460 835 b 351 1011 460 960 411 1011 b 243 897 292 1011 243 960 z m 282 897 b 351 971 282 938 313 971 b 421 897 390 971 421 938 b 351 824 421 857 390 824 b 282 897 313 824 282 857 z m 453 0 l 707 0 l 613 107 l 613 681 l 432 681 l 453 596 b 279 101 453 476 349 236 b 269 481 274 157 269 246 l 269 708 l 7 681 l 110 561 l 110 226 b 136 -11 110 125 128 33 l 261 0 b 453 447 290 40 399 242 z "},"Ŵ":{"ha":1396,"x_min":0,"x_max":0,"o":"m 765 1207 l 656 1207 l 574 1028 l 593 1028 l 711 1125 l 829 1028 l 849 1028 z m 1085 951 l 1199 831 l 1000 196 l 985 257 l 779 867 l 888 951 l 526 951 l 592 872 l 688 606 l 536 206 l 524 257 l 306 867 l 413 951 l 51 951 l 119 869 l 447 -17 l 528 -17 l 717 524 l 908 -17 l 989 -17 l 1272 832 l 1361 951 z "},"ŵ":{"ha":982,"x_min":0,"x_max":0,"o":"m 624 946 l 510 946 l 442 767 l 463 771 l 567 864 l 671 771 l 692 767 z m 783 681 l 783 672 l 867 604 b 731 108 915 564 882 244 l 732 114 l 633 681 l 467 681 b 508 488 490 571 500 531 b 353 108 507 365 453 201 l 354 114 l 250 725 l 0 593 l 129 497 l 221 -21 b 531 365 358 22 465 190 l 599 -21 b 982 681 825 50 965 456 z "},"Ŷ":{"ha":957,"x_min":0,"x_max":0,"o":"m 575 1207 l 465 1207 l 382 1028 l 403 1028 l 521 1125 l 638 1028 l 658 1028 z m 281 0 l 675 0 l 564 140 l 564 442 l 785 821 l 921 951 l 585 951 l 697 807 l 524 496 l 503 542 l 347 804 l 349 804 l 461 951 l 36 951 l 157 804 l 392 390 l 392 140 z "},"ŷ":{"ha":717,"x_min":0,"x_max":0,"o":"m 415 946 l 301 946 l 233 767 l 254 771 l 358 864 l 463 771 l 483 767 z m 471 35 b 317 -240 469 -187 406 -240 b 49 -125 260 -240 129 -192 l 40 -135 l 194 -324 l 203 -324 b 629 104 383 -324 629 -126 l 629 681 l 472 681 l 472 583 b 308 118 472 522 453 254 l 264 681 l 7 681 l 121 571 l 172 -21 b 471 349 310 22 410 188 z "},"Ÿ":{"ha":957,"x_min":0,"x_max":0,"o":"m 456 1153 l 354 1274 l 251 1153 l 354 1031 z m 764 1153 l 663 1274 l 560 1153 l 663 1031 z m 281 0 l 675 0 l 564 140 l 564 442 l 785 821 l 921 951 l 585 951 l 697 807 l 524 496 l 503 542 l 347 804 l 349 804 l 461 951 l 36 951 l 157 804 l 392 390 l 392 140 z "},"Ź":{"ha":928,"x_min":0,"x_max":0,"o":"m 425 1207 l 401 1028 l 421 1028 l 592 1207 z m 840 301 l 649 50 l 275 50 l 844 932 l 835 951 l 268 951 l 128 965 l 119 647 l 125 647 l 310 901 l 624 901 l 61 17 l 71 0 l 831 0 l 846 301 z "},"ź":{"ha":590,"x_min":0,"x_max":0,"o":"m 318 946 l 293 767 l 314 767 l 485 946 z m 572 681 l 138 681 l 72 692 l 46 382 l 54 383 l 139 526 l 421 526 l 32 -17 l 67 -17 l 133 69 b 306 128 164 111 239 128 b 440 -49 397 128 440 49 b 183 -285 440 -217 299 -285 b 22 -224 104 -285 63 -253 l 6 -249 b 181 -312 69 -301 129 -312 b 576 118 406 -312 576 -81 b 417 282 576 211 529 282 b 250 225 357 282 297 258 z "},"Ż":{"ha":928,"x_min":0,"x_max":0,"o":"m 553 1139 l 461 1250 l 367 1139 l 461 1026 z m 840 301 l 649 50 l 275 50 l 844 932 l 835 951 l 268 951 l 128 965 l 119 647 l 125 647 l 310 901 l 624 901 l 61 17 l 71 0 l 831 0 l 846 301 z "},"ż":{"ha":590,"x_min":0,"x_max":0,"o":"m 418 863 l 314 971 l 208 863 l 314 753 z m 572 681 l 138 681 l 72 692 l 46 382 l 54 383 l 139 526 l 421 526 l 32 -17 l 67 -17 l 133 69 b 306 128 164 111 239 128 b 440 -49 397 128 440 49 b 183 -285 440 -217 299 -285 b 22 -224 104 -285 63 -253 l 6 -249 b 181 -312 69 -301 129 -312 b 576 118 406 -312 576 -81 b 417 282 576 211 529 282 b 250 225 357 282 297 258 z "},"Ž":{"ha":928,"x_min":0,"x_max":0,"o":"m 611 1207 l 592 1207 l 474 1110 l 357 1207 l 336 1207 l 418 1028 l 528 1028 z m 840 301 l 649 50 l 275 50 l 844 932 l 835 951 l 268 951 l 128 965 l 119 647 l 125 647 l 310 901 l 624 901 l 61 17 l 71 0 l 831 0 l 846 301 z "},"ž":{"ha":590,"x_min":0,"x_max":0,"o":"m 439 946 l 418 942 l 314 849 l 210 942 l 189 946 l 257 767 l 371 767 z m 572 681 l 138 681 l 72 692 l 46 382 l 54 383 l 139 526 l 421 526 l 32 -17 l 67 -17 l 133 69 b 306 128 164 111 239 128 b 440 -49 397 128 440 49 b 183 -285 440 -217 299 -285 b 22 -224 104 -285 63 -253 l 6 -249 b 181 -312 69 -301 129 -312 b 576 118 406 -312 576 -81 b 417 282 576 211 529 282 b 250 225 357 282 297 258 z "},"ˆ":{"ha":296,"x_min":0,"x_max":0,"o":"m 204 946 l 90 946 l 22 767 l 43 771 l 147 864 l 251 771 l 272 767 z "},"ˇ":{"ha":294,"x_min":0,"x_max":0,"o":"m 272 946 l 251 942 l 147 849 l 43 942 l 22 946 l 90 767 l 204 767 z "},"˙":{"ha":343,"x_min":0,"x_max":0,"o":"m 276 863 l 172 971 l 67 863 l 172 753 z "},"˚":{"ha":264,"x_min":0,"x_max":0,"o":"m 22 872 b 131 758 22 810 71 758 b 239 872 190 758 239 810 b 131 986 239 935 190 986 b 22 872 71 986 22 935 z m 61 872 b 131 946 61 913 92 946 b 200 872 169 946 200 913 b 131 799 200 832 169 799 b 61 872 92 799 61 832 z "},"˜":{"ha":501,"x_min":0,"x_max":0,"o":"m 104 794 l 124 782 b 176 842 140 813 158 842 b 372 824 240 842 307 829 l 450 967 l 431 975 b 372 928 410 949 392 928 b 188 946 311 928 249 940 z "},"Ẁ":{"ha":1396,"x_min":0,"x_max":0,"o":"m 714 1207 l 540 1207 l 711 1028 l 731 1028 z m 1085 951 l 1199 831 l 1000 196 l 985 257 l 779 867 l 888 951 l 526 951 l 592 872 l 688 606 l 536 206 l 524 257 l 306 867 l 413 951 l 51 951 l 119 869 l 447 -17 l 528 -17 l 717 524 l 908 -17 l 989 -17 l 1272 832 l 1361 951 z "},"ẁ":{"ha":982,"x_min":0,"x_max":0,"o":"m 571 946 l 404 946 l 575 767 l 596 767 z m 783 681 l 783 672 l 867 604 b 731 108 915 564 882 244 l 732 114 l 633 681 l 467 681 b 508 488 490 571 500 531 b 353 108 507 365 453 201 l 354 114 l 250 725 l 0 593 l 129 497 l 221 -21 b 531 365 358 22 465 190 l 599 -21 b 982 681 825 50 965 456 z "},"Ẃ":{"ha":1396,"x_min":0,"x_max":0,"o":"m 704 1207 l 688 1028 l 707 1028 l 878 1207 z m 1085 951 l 1199 831 l 1000 196 l 985 257 l 779 867 l 888 951 l 526 951 l 592 872 l 688 606 l 536 206 l 524 257 l 306 867 l 413 951 l 51 951 l 119 869 l 447 -17 l 528 -17 l 717 524 l 908 -17 l 989 -17 l 1272 832 l 1361 951 z "},"ẃ":{"ha":982,"x_min":0,"x_max":0,"o":"m 571 946 l 546 767 l 567 767 l 738 946 z m 783 681 l 783 672 l 867 604 b 731 108 915 564 882 244 l 732 114 l 633 681 l 467 681 b 508 488 490 571 500 531 b 353 108 507 365 453 201 l 354 114 l 250 725 l 0 593 l 129 497 l 221 -21 b 531 365 358 22 465 190 l 599 -21 b 982 681 825 50 965 456 z "},"Ẅ":{"ha":1396,"x_min":0,"x_max":0,"o":"m 651 1151 l 551 1272 l 447 1151 l 551 1029 z m 961 1151 l 860 1272 l 757 1151 l 860 1029 z m 1085 951 l 1199 831 l 1000 196 l 985 257 l 779 867 l 888 951 l 526 951 l 592 872 l 688 606 l 536 206 l 524 257 l 306 867 l 413 951 l 51 951 l 119 869 l 447 -17 l 528 -17 l 717 524 l 908 -17 l 989 -17 l 1272 832 l 1361 951 z "},"ẅ":{"ha":982,"x_min":0,"x_max":0,"o":"m 524 864 l 439 969 l 353 864 l 439 757 z m 781 864 l 696 969 l 610 864 l 696 757 z m 783 681 l 783 672 l 867 604 b 731 108 915 564 882 244 l 732 114 l 633 681 l 467 681 b 508 488 490 571 500 531 b 353 108 507 365 453 201 l 354 114 l 250 725 l 0 593 l 129 497 l 221 -21 b 531 365 358 22 465 190 l 599 -21 b 982 681 825 50 965 456 z "},"Ỳ":{"ha":957,"x_min":0,"x_max":0,"o":"m 521 1207 l 349 1207 l 519 1028 l 539 1028 z m 281 0 l 675 0 l 564 140 l 564 442 l 785 821 l 921 951 l 585 951 l 697 807 l 524 496 l 503 542 l 347 804 l 349 804 l 461 951 l 36 951 l 157 804 l 392 390 l 392 140 z "},"ỳ":{"ha":717,"x_min":0,"x_max":0,"o":"m 363 946 l 196 946 l 367 767 l 388 767 z m 471 35 b 317 -240 469 -187 406 -240 b 49 -125 260 -240 129 -192 l 40 -135 l 194 -324 l 203 -324 b 629 104 383 -324 629 -126 l 629 681 l 472 681 l 472 583 b 308 118 472 522 453 254 l 264 681 l 7 681 l 121 571 l 172 -21 b 471 349 310 22 410 188 z "}," ":{"ha":250,"x_min":0,"x_max":0,"o":""},"–":{"ha":694,"x_min":0,"x_max":0,"o":"m 32 429 l 32 338 l 663 338 l 663 429 z "},"—":{"ha":1250,"x_min":0,"x_max":0,"o":"m 58 429 l 58 338 l 1192 338 l 1192 429 z "},"‘":{"ha":344,"x_min":0,"x_max":0,"o":"m 242 988 b 47 731 213 968 47 867 b 154 596 47 683 111 624 l 264 714 l 213 757 b 174 829 196 776 174 793 b 260 974 174 882 215 935 z "},"’":{"ha":344,"x_min":0,"x_max":0,"o":"m 69 596 b 264 853 99 615 264 717 b 157 988 264 900 200 960 l 47 869 l 99 826 b 138 754 115 807 138 790 b 51 610 138 701 96 649 z "},"‚":{"ha":315,"x_min":0,"x_max":0,"o":"m 69 -171 b 264 86 99 -151 264 -50 b 157 221 264 133 200 193 l 47 103 l 99 60 b 138 -12 115 40 138 24 b 51 -157 138 -65 96 -118 z "},"“":{"ha":590,"x_min":0,"x_max":0,"o":"m 249 988 b 54 731 219 968 54 867 b 161 596 54 683 117 624 l 271 714 l 219 757 b 181 829 201 776 181 793 b 267 974 181 882 222 935 z m 513 988 b 318 731 483 968 318 867 b 425 596 318 683 382 624 l 535 714 l 483 757 b 446 829 467 776 446 793 b 531 974 446 882 486 935 z "},"”":{"ha":590,"x_min":0,"x_max":0,"o":"m 76 596 b 271 853 106 615 271 717 b 164 988 271 900 207 960 l 54 869 l 106 826 b 143 754 122 807 143 790 b 58 610 143 701 103 649 z m 340 596 b 535 853 369 615 535 717 b 428 988 535 900 472 960 l 318 869 l 369 826 b 408 754 388 807 408 790 b 322 610 408 701 367 649 z "},"„":{"ha":593,"x_min":0,"x_max":0,"o":"m 76 -169 b 271 88 106 -150 271 -49 b 164 222 271 135 207 194 l 54 104 l 106 61 b 143 -11 122 42 143 25 b 58 -156 143 -64 103 -117 z m 340 -169 b 535 88 369 -150 535 -49 b 428 222 535 135 472 194 l 318 104 l 369 61 b 408 -11 388 42 408 25 b 322 -156 408 -64 367 -117 z "},"†":{"ha":514,"x_min":0,"x_max":0,"o":"m 211 681 l 0 681 l 0 522 l 119 625 l 174 625 l 174 503 l 247 -111 l 267 -111 l 340 503 l 340 625 l 514 625 l 514 783 l 394 681 l 303 681 l 340 972 l 174 972 z "},"‡":{"ha":514,"x_min":0,"x_max":0,"o":"m 514 194 l 514 353 l 394 250 l 303 250 l 303 625 l 514 625 l 514 783 l 394 681 l 303 681 l 340 972 l 174 972 l 211 681 l 0 681 l 0 522 l 119 625 l 211 625 l 211 250 l 0 250 l 0 92 l 119 194 l 211 194 l 174 -97 l 340 -97 l 303 194 z "},"•":{"ha":482,"x_min":0,"x_max":0,"o":"m 411 365 l 242 558 l 71 365 l 242 174 z "},"…":{"ha":1032,"x_min":0,"x_max":0,"o":"m 271 92 l 158 219 l 44 92 l 158 -36 z m 629 92 l 517 219 l 403 92 l 517 -36 z m 988 92 l 875 219 l 761 92 l 875 -36 z "},"‹":{"ha":411,"x_min":0,"x_max":0,"o":"m 386 39 l 238 342 l 119 342 l 386 635 l 372 658 l 46 342 l 372 25 z "},"›":{"ha":411,"x_min":0,"x_max":0,"o":"m 31 644 l 179 342 l 297 342 l 31 49 l 44 25 l 371 342 l 44 658 z "},"⁄":{"ha":653,"x_min":0,"x_max":0,"o":"m 0 -46 l 60 -46 l 657 999 l 596 999 z "},"⁰":{"ha":568,"x_min":0,"x_max":0,"o":"m 501 838 b 308 1089 501 964 435 1089 b 67 790 147 1089 67 928 b 258 539 67 664 133 539 b 501 838 419 539 501 700 z m 263 1049 b 390 740 336 1049 390 906 b 308 579 390 686 371 579 b 181 888 233 579 181 722 b 263 1049 181 951 190 1049 z "},"⁴":{"ha":538,"x_min":0,"x_max":0,"o":"m 499 722 l 499 763 l 378 763 l 378 992 l 265 835 l 265 764 l 135 764 l 399 1118 l 264 1118 l 39 724 l 267 724 l 267 650 l 185 592 l 467 592 l 378 650 l 378 722 z "},"⁵":{"ha":472,"x_min":0,"x_max":0,"o":"m 118 906 l 138 1011 l 397 1011 l 422 1117 l 431 1161 l 376 1117 l 113 1117 l 110 1100 l 72 849 l 104 849 l 107 864 b 213 906 144 893 181 906 b 318 743 310 906 318 810 b 228 619 318 640 285 619 b 72 743 131 619 72 743 l 67 743 b 64 592 67 683 64 592 l 176 592 b 431 778 331 592 431 653 b 247 940 431 879 338 940 b 154 921 219 940 188 935 z "},"⁶":{"ha":493,"x_min":0,"x_max":0,"o":"m 407 1135 b 43 761 207 1061 43 928 b 228 585 43 651 122 585 b 436 758 360 585 436 678 b 272 914 436 860 361 914 b 171 881 238 914 197 894 b 413 1113 203 992 292 1067 z m 164 850 b 226 878 178 861 199 878 b 326 739 271 878 326 831 b 247 614 326 699 310 614 b 156 765 194 614 156 668 b 164 850 156 797 157 822 z "},"⁷":{"ha":503,"x_min":0,"x_max":0,"o":"m 58 1114 l 58 944 l 61 944 l 106 1008 l 329 1008 l 107 589 l 144 575 l 444 1114 z "},"⁸":{"ha":504,"x_min":0,"x_max":0,"o":"m 263 1138 b 78 999 176 1138 78 1094 b 171 858 78 928 124 897 b 56 714 125 831 56 796 b 236 585 56 638 131 585 b 449 751 308 585 449 626 b 325 914 449 836 386 875 b 413 1032 372 942 413 975 b 263 1138 413 1103 326 1138 z m 304 924 b 161 1029 236 954 161 975 b 254 1113 161 1085 207 1113 b 350 1021 299 1113 350 1088 b 304 924 350 981 340 949 z m 197 847 b 357 708 275 815 357 796 b 238 610 357 642 304 610 b 118 718 154 610 118 663 b 197 847 118 778 158 824 z "},"⁹":{"ha":493,"x_min":0,"x_max":0,"o":"m 86 582 b 461 956 292 656 461 789 b 271 1132 461 1065 379 1132 b 56 958 135 1132 56 1039 b 225 803 56 857 133 803 b 329 836 260 803 301 822 b 81 604 296 725 204 650 z m 336 867 b 272 839 322 856 300 839 b 168 978 226 839 168 886 b 250 1103 168 1018 186 1103 b 344 951 304 1103 344 1049 b 336 867 344 919 343 894 z "},"⅛":{"ha":1064,"x_min":0,"x_max":0,"o":"m 221 -46 l 281 -46 l 878 999 l 817 999 z m 310 951 l 107 757 l 108 756 l 199 788 l 199 471 l 117 413 l 399 413 l 310 471 z m 831 539 b 981 433 894 539 981 504 b 893 315 981 376 940 343 b 1017 153 954 276 1017 238 b 804 -14 1017 28 876 -14 b 624 115 699 -14 624 39 b 739 260 624 197 693 232 b 646 400 692 299 646 329 b 831 539 646 496 744 539 z m 872 325 b 918 422 908 350 918 382 b 822 514 918 489 867 514 b 729 431 775 514 729 486 b 872 325 729 376 804 356 z m 765 249 b 686 119 726 225 686 179 b 806 11 686 64 722 11 b 925 110 872 11 925 43 b 765 249 925 197 843 217 z "},"⅜":{"ha":1094,"x_min":0,"x_max":0,"o":"m 214 -46 l 274 -46 l 871 999 l 810 999 z m 86 411 b 472 590 185 411 472 463 b 256 707 472 675 347 700 b 464 844 396 746 464 786 b 236 951 464 925 358 951 l 92 951 l 92 801 l 96 801 b 224 924 124 864 154 924 b 338 832 292 924 338 889 b 168 701 338 757 228 722 l 136 692 l 139 676 b 168 682 150 678 158 681 b 324 560 254 667 324 638 b 79 438 324 467 174 438 z m 850 539 b 1000 433 914 539 1000 504 b 913 315 1000 376 960 343 b 1036 153 974 276 1036 238 b 824 -14 1036 28 896 -14 b 643 115 718 -14 643 39 b 758 260 643 197 713 232 b 665 400 711 299 665 329 b 850 539 665 496 764 539 z m 892 325 b 938 422 928 350 938 382 b 842 514 938 489 886 514 b 749 431 794 514 749 486 b 892 325 749 376 824 356 z m 785 249 b 706 119 746 225 706 179 b 825 11 706 64 742 11 b 944 110 892 11 944 43 b 785 249 944 197 863 217 z "},"⅝":{"ha":1065,"x_min":0,"x_max":0,"o":"m 197 -46 l 257 -46 l 854 999 l 793 999 z m 118 740 l 138 846 l 397 846 l 422 951 l 431 996 l 376 951 l 113 951 l 110 935 l 72 683 l 104 683 l 107 699 b 213 740 144 728 181 740 b 318 578 310 740 318 644 b 228 454 318 475 285 454 b 72 578 131 454 72 578 l 67 578 b 64 426 67 518 64 426 l 176 426 b 431 613 331 426 431 488 b 247 775 431 714 338 775 b 154 756 219 775 188 769 z m 886 315 b 974 433 933 343 974 376 b 824 539 974 504 888 539 b 639 400 738 539 639 496 b 732 260 639 329 685 299 b 617 115 686 232 617 197 b 797 -14 617 39 692 -14 b 1010 153 869 -14 1010 28 b 886 315 1010 238 947 276 z m 722 431 b 815 514 722 486 768 514 b 911 422 860 514 911 489 b 865 325 911 382 901 350 b 722 431 797 356 722 376 z m 799 11 b 679 119 715 11 679 64 b 758 249 679 179 719 225 b 918 110 836 217 918 197 b 799 11 918 43 865 11 z "},"⅞":{"ha":1069,"x_min":0,"x_max":0,"o":"m 154 -46 l 214 -46 l 811 999 l 750 999 z m 136 951 l 136 782 l 139 782 l 183 846 l 407 846 l 185 426 l 222 413 l 522 951 z m 811 539 b 961 433 875 539 961 504 b 874 315 961 376 921 343 b 997 153 935 276 997 238 b 785 -14 997 28 857 -14 b 604 115 679 -14 604 39 b 719 260 604 197 674 232 b 626 400 672 299 626 329 b 811 539 626 496 725 539 z m 853 325 b 899 422 889 350 899 382 b 803 514 899 489 847 514 b 710 431 756 514 710 486 b 853 325 710 376 785 356 z m 746 249 b 667 119 707 225 667 179 b 786 11 667 64 703 11 b 906 110 853 11 906 43 b 746 249 906 197 824 217 z "},"♥":{"ha":1389,"x_min":0,"x_max":0,"o":"m 632 -75 b 1190 681 869 233 1190 350 b 919 965 1190 875 1078 965 b 632 738 732 965 664 829 b 344 965 600 829 532 965 b 74 681 186 965 74 875 b 632 -75 74 350 394 233 z "},"ﬀ":{"ha":925,"x_min":0,"x_max":0,"o":"m 663 606 l 919 647 l 929 681 l 663 681 b 638 799 649 717 638 757 b 721 911 638 883 694 911 b 960 776 764 911 919 838 l 965 776 l 907 994 l 799 965 b 571 818 690 936 617 876 l 535 956 l 426 926 b 144 681 251 879 168 754 l 33 681 l 131 593 l 131 281 l 144 -299 l 156 -299 b 290 356 218 -61 290 -40 l 290 606 l 503 617 l 503 315 l 517 -264 l 528 -264 b 663 390 590 -26 663 -6 z m 278 681 b 265 760 269 706 265 732 b 349 872 265 844 322 872 b 544 781 382 872 482 828 b 510 681 521 739 510 701 z "}}}
